<svg width="24" height="24" viewBox="0 0 24 24" fill="none" xmlns="http://www.w3.org/2000/svg">
<path d="M23.5 12C23.5 18.3513 18.3513 23.5 12 23.5C5.64873 23.5 0.5 18.3513 0.5 12C0.5 5.64873 5.64873 0.5 12 0.5C18.3513 0.5 23.5 5.64873 23.5 12Z" fill="#2E3148" stroke="#6F7390"/>
<path d="M11.9991 18.9627C15.8447 18.9627 18.9621 15.8453 18.9621 11.9997C18.9621 8.15417 15.8447 5.03674 11.9991 5.03674C8.15356 5.03674 5.03613 8.15417 5.03613 11.9997C5.03613 15.8453 8.15356 18.9627 11.9991 18.9627Z" fill="#1B1E36"/>
<path d="M12.0244 1.53113C10.7291 1.53113 9.67871 6.22937 9.67871 12.025C9.67871 17.8206 10.7291 22.5188 12.0244 22.5188C13.3198 22.5188 14.3701 17.8206 14.3701 12.025C14.3701 6.22937 13.3198 1.53113 12.0244 1.53113ZM12.1864 21.9266C12.0382 22.1242 11.8901 21.976 11.8901 21.976C11.2936 21.2848 10.9953 20.0007 10.9953 20.0007C9.95184 16.6427 10.2002 9.43279 10.2002 9.43279C10.6906 3.70889 11.5826 2.35673 11.8862 2.05654C11.9172 2.0259 11.958 2.00718 12.0014 2.00366C12.0449 2.00015 12.0882 2.01208 12.1237 2.03734C12.5641 2.34943 12.9336 3.65465 12.9336 3.65465C14.0244 7.70402 13.9256 11.5065 13.9256 11.5065C14.0244 14.8151 13.379 18.5188 13.379 18.5188C12.8822 21.3335 12.1864 21.9266 12.1864 21.9266Z" fill="#6F7390"/>
<path d="M21.1271 6.80284C20.4822 5.67887 15.8847 7.106 10.8551 9.99004C5.82559 12.8741 2.27781 16.1234 2.92226 17.2469C3.56671 18.3704 8.16472 16.9437 13.1943 14.0597C18.2238 11.1756 21.7716 7.92632 21.1271 6.80284ZM3.51727 17.0927C3.27036 17.0616 3.32613 16.8586 3.32613 16.8586C3.62901 15.9974 4.59285 15.0996 4.59285 15.0996C6.98738 12.5234 13.3652 9.151 13.3652 9.151C18.5736 6.72776 20.1914 6.83 20.6018 6.943C20.6439 6.95475 20.6805 6.98104 20.7051 7.0172C20.7297 7.05336 20.7407 7.09707 20.7362 7.14056C20.6869 7.67816 19.7362 8.64776 19.7362 8.64776C16.7686 11.6102 13.421 13.4171 13.421 13.4171C10.6002 15.1499 7.06648 16.4324 7.06648 16.4324C4.37762 17.4013 3.51736 17.0927 3.51736 17.0927H3.51727Z" fill="#6F7390"/>
<path d="M21.1029 17.2836C21.7528 16.1626 18.214 12.8985 13.2021 9.99277C8.1903 7.08706 3.59336 5.64227 2.94402 6.76518C2.29468 7.88808 5.83293 11.1503 10.8477 14.056C15.8624 16.9617 20.4536 18.4066 21.1029 17.2836ZM3.37467 7.19832C3.27867 6.97071 3.48133 6.9159 3.48133 6.9159C4.37854 6.74646 5.63882 7.13257 5.63882 7.13257C9.06744 7.91333 15.1812 11.7429 15.1812 11.7429C19.8883 15.0368 20.6102 16.4876 20.7184 16.8994C20.7294 16.9417 20.7252 16.9864 20.7064 17.0258C20.6876 17.0652 20.6555 17.0967 20.6157 17.1148C20.1249 17.3395 18.8102 17.0046 18.8102 17.0046C14.7584 15.9182 11.5179 13.9277 11.5179 13.9277C8.60636 12.3573 5.72733 9.94102 5.72733 9.94102C3.53969 8.09909 3.37534 7.20082 3.37534 7.20082L3.37467 7.19832Z" fill="#6F7390"/>
<path d="M11.9992 13.2349C12.681 13.2349 13.2338 12.6821 13.2338 12.0003C13.2338 11.3185 12.681 10.7657 11.9992 10.7657C11.3174 10.7657 10.7646 11.3185 10.7646 12.0003C10.7646 12.6821 11.3174 13.2349 11.9992 13.2349Z" fill="#B7B9C8"/>
<path d="M17.0617 7.9999C17.4572 7.9999 17.7777 7.66827 17.7777 7.25917C17.7777 6.85007 17.4572 6.51843 17.0617 6.51843C16.6663 6.51843 16.3457 6.85007 16.3457 7.25917C16.3457 7.66827 16.6663 7.9999 17.0617 7.9999Z" fill="#B7B9C8"/>
<path d="M5.30884 10.5189C5.70431 10.5189 6.0249 10.1873 6.0249 9.77821C6.0249 9.36911 5.70431 9.03748 5.30884 9.03748C4.91337 9.03748 4.59277 9.36911 4.59277 9.77821C4.59277 10.1873 4.91337 10.5189 5.30884 10.5189Z" fill="#B7B9C8"/>
<path d="M10.5423 19.6049C10.9377 19.6049 11.2583 19.2733 11.2583 18.8642C11.2583 18.4552 10.9377 18.1235 10.5423 18.1235C10.1468 18.1235 9.82617 18.4552 9.82617 18.8642C9.82617 19.2733 10.1468 19.6049 10.5423 19.6049Z" fill="#B7B9C8"/>
</svg>
