<svg width="30" height="30" viewBox="0 0 30 30" fill="none" xmlns="http://www.w3.org/2000/svg">
<path d="M29 15C29 22.732 22.732 29 15 29C7.26801 29 1 22.732 1 15C1 7.26801 7.26801 1 15 1C22.732 1 29 7.26801 29 15Z" fill="#F7931A" stroke="white"/>
<path d="M25 15C25 20.5228 20.5228 25 15 25C9.47715 25 5 20.5228 5 15C5 9.47715 9.47715 5 15 5C20.5228 5 25 9.47715 25 15Z" fill="#F7931A" stroke="white"/>
<path d="M18.3171 11.8332C17.8708 10.6322 16.6515 10.4884 15.2253 10.7041L14.779 9L13.6904 9.25666L14.1259 10.9196C13.843 10.9916 13.5489 11.0632 13.2659 11.1352L12.8304 9.46199L11.7418 9.71866L12.1882 11.4226C11.9596 11.4841 11.72 11.5458 11.5023 11.5971V11.587L10 11.9463L10.294 13.055C10.294 13.055 11.0888 12.8497 11.0778 12.8703C11.513 12.7676 11.72 12.973 11.8181 13.1783L12.3297 15.1287C12.3733 15.1185 12.4059 15.1081 12.4493 15.1081L12.3297 15.1389L13.0371 17.8694C13.0479 18.0028 13.0263 18.2389 12.7215 18.3108C12.7434 18.321 11.9267 18.4956 11.9267 18.4956L12.0356 19.7888L13.4508 19.4501C13.7122 19.3886 13.9734 19.3271 14.2238 19.2755L14.6701 21L15.7587 20.7433L15.3123 19.029C15.6172 18.9675 15.9002 18.8956 16.1831 18.8341L16.6295 20.538L17.718 20.2813L17.2717 18.5569C19.068 18.0232 20.2328 17.2738 19.9606 15.5902C19.7429 14.2352 18.9373 13.8042 17.8377 13.8144C18.3929 13.3524 18.6433 12.7161 18.3166 11.8332H18.3171ZM17.7619 15.8878C18.0994 17.1813 15.7479 17.5815 15.0186 17.7561L14.4197 15.467C15.1601 15.3028 17.4135 14.5534 17.7619 15.8878ZM16.423 12.7877C16.7278 13.958 14.7682 14.2863 14.1586 14.4301L13.6142 12.3567C14.2238 12.2027 16.0961 11.556 16.4227 12.7877H16.423Z" fill="white"/>
</svg>
