<svg width="24" height="24" viewBox="0 0 24 24" fill="none" xmlns="http://www.w3.org/2000/svg">
<path d="M23.6383 14.9029C22.0356 21.3315 15.5244 25.2438 9.09503 23.6407C2.66833 22.0381 -1.24401 15.5265 0.359382 9.09837C1.96136 2.66903 8.47253 -1.24361 14.8999 0.359081C21.3289 1.96177 25.241 8.47405 23.6381 14.903L23.6382 14.9029H23.6383Z" fill="#F7931A"/>
<path d="M16.9061 10.9213C17.1201 9.48045 16.031 8.70592 14.5418 8.18923L15.0249 6.23742L13.8453 5.94136L13.375 7.84179C13.0649 7.76388 12.7465 7.69048 12.43 7.61771L12.9037 5.70474L11.7248 5.40869L11.2415 7.35987C10.9848 7.30102 10.7328 7.24285 10.4883 7.18157L10.4896 7.17543L8.86301 6.76628L8.54923 8.03527C8.54923 8.03527 9.42436 8.23733 9.40592 8.24977C9.88358 8.36985 9.96996 8.68835 9.95561 8.94079L9.40529 11.1644C9.43818 11.1728 9.48085 11.1849 9.52792 11.204C9.48857 11.1942 9.44669 11.1834 9.40324 11.1729L8.63188 14.2878C8.57351 14.434 8.42534 14.6534 8.09139 14.5701C8.10321 14.5873 7.23407 14.3546 7.23407 14.3546L6.64844 15.7146L8.18344 16.1C8.469 16.1722 8.74884 16.2476 9.02442 16.3186L8.53631 18.2928L9.7145 18.5889L10.1979 16.6356C10.5198 16.7236 10.8321 16.8048 11.1379 16.8813L10.6561 18.8254L11.8358 19.1214L12.3238 17.1509C14.3352 17.5344 15.8476 17.3798 16.4842 15.5473C16.9972 14.0719 16.4587 13.2209 15.4005 12.6659C16.1712 12.4869 16.7518 11.9763 16.9065 10.9215L16.9062 10.9212L16.9061 10.9213ZM14.2111 14.7279C13.8466 16.2033 11.3804 15.4057 10.5808 15.2057L11.2285 12.5903C12.0281 12.7913 14.5921 13.1892 14.2112 14.7279H14.2111ZM14.5759 10.9C14.2434 12.242 12.1907 11.5602 11.5249 11.393L12.1121 9.02092C12.778 9.1881 14.9223 9.50014 14.576 10.9H14.5759Z" fill="white"/>
</svg>
