<svg width="30" height="30" viewBox="0 0 30 30" fill="none" xmlns="http://www.w3.org/2000/svg">
<path d="M29 15C29 22.732 22.732 29 15 29C7.26801 29 1 22.732 1 15C1 7.26801 7.26801 1 15 1C22.732 1 29 7.26801 29 15Z" fill="#CCD0D5" fill-opacity="0.1" stroke="#E1DFDF" stroke-opacity="0.2"/>
<path d="M14.9762 7L16.9524 9.02381L11.9762 14L10 12.0238L14.9762 7Z" fill="#F0B90B" stroke="#F0B90B"/>
<path d="M17.9762 10L19.9524 12.0238L11.9762 20L10 18.0238L17.9762 10Z" fill="#F0B90B" stroke="#F0B90B"/>
<path d="M8.97619 13L10.9524 15.0238L8.97619 17L7 15.0238L8.97619 13Z" fill="#F0B90B" stroke="#F0B90B"/>
<path d="M20.9762 13L22.9524 15.0238L14.9762 23L13 21.0238L20.9762 13Z" fill="#F0B90B" stroke="#F0B90B"/>
</svg>
