<svg width="30" height="30" viewBox="0 0 30 30" fill="none" xmlns="http://www.w3.org/2000/svg">
<path d="M29 15C29 22.732 22.732 29 15 29C7.26801 29 1 22.732 1 15C1 7.26801 7.26801 1 15 1C22.732 1 29 7.26801 29 15Z" fill="#3CC68A" fill-opacity="0.1" stroke="#3CC68A"/>
<path d="M5 7V10.1986V13.3971V16.6027H8.35522V13.3971V10.1986V7H5Z" fill="#424242"/>
<path d="M21.6445 13.397V16.6026V19.8012V22.9998H24.9998V19.8012V16.6026V13.397H21.6445Z" fill="#424242"/>
<path d="M14.9277 7V10.1986V13.2636L18.283 16.4621V13.3971V10.1986L14.9277 7Z" fill="#424242"/>
<path d="M11.7188 13.5377V16.6027V19.8013L15.074 22.9999V19.8013V16.7363L11.7188 13.5377Z" fill="#424242"/>
<path d="M14.9277 7H18.283L25.0008 13.3971H21.6456L14.9277 7Z" fill="black"/>
<path d="M5 16.6028H8.35522L15.073 22.9999H11.7178L5 16.6028Z" fill="black"/>
<path d="M18.2791 10.1986V13.3971V16.42L8.35352 7V10.1986V10.3954V13.3971V16.6027L11.7161 19.8013V16.6027V13.5799L21.6417 22.9999V19.8013V19.6045V16.6027V13.3971L18.2791 10.1986Z" fill="#3CC68A"/>
</svg>
