<svg width="28" height="28" viewBox="0 0 28 28" fill="none" xmlns="http://www.w3.org/2000/svg">
<path d="M14 0C21.7327 0 28 6.26856 28 14C28 21.7327 21.7327 28 14 28C6.26856 28 0 21.7321 0 14C0 6.26856 6.26856 0 14 0Z" fill="#F5AC37"/>
<path d="M14.6934 14.2677H18.4932C18.5742 14.2677 18.6125 14.2677 18.6183 14.1615C18.6494 13.7749 18.6494 13.3861 18.6183 12.9991C18.6183 12.924 18.581 12.8929 18.4995 12.8929H10.9372C10.8436 12.8929 10.8184 12.924 10.8184 13.0117V14.1241C10.8184 14.2677 10.8184 14.2677 10.9682 14.2677H14.6934ZM18.194 11.5928C18.2048 11.5645 18.2048 11.5334 18.194 11.5055C18.1305 11.3674 18.0553 11.2355 17.968 11.1118C17.8366 10.9003 17.6818 10.7054 17.5054 10.5304C17.4222 10.4246 17.3259 10.3297 17.2179 10.2491C16.677 9.78877 16.0339 9.46297 15.3427 9.29916C14.994 9.22086 14.6376 9.18351 14.2803 9.18666H10.9241C10.8305 9.18666 10.8179 9.22401 10.8179 9.30546V11.524C10.8179 11.6176 10.8179 11.6428 10.9367 11.6428H18.149C18.149 11.6428 18.2115 11.6302 18.2241 11.5928H18.1935H18.194ZM18.194 15.5677C18.0878 15.556 17.9806 15.556 17.8744 15.5677H10.9435C10.8499 15.5677 10.8184 15.5677 10.8184 15.6928V17.8619C10.8184 17.9618 10.8184 17.987 10.9435 17.987H14.1435C14.2965 17.9987 14.4495 17.9879 14.5993 17.9559C15.0637 17.9226 15.5205 17.8218 15.9561 17.6557C16.1145 17.6008 16.2675 17.5293 16.4119 17.4433H16.4556C17.2057 17.0532 17.815 16.4403 18.1994 15.6879C18.1994 15.6879 18.243 15.5934 18.194 15.5686V15.5677ZM9.56242 19.1115V19.0742V17.6179V17.1243V15.6555C9.56242 15.574 9.56242 15.5619 9.46251 15.5619H8.1062C8.03105 15.5619 8 15.5619 8 15.462V14.2744H9.44991C9.53092 14.2744 9.56242 14.2744 9.56242 14.1682V12.9933C9.56242 12.9181 9.56242 12.8997 9.46251 12.8997H8.1062C8.03105 12.8997 8 12.8997 8 12.7997V11.6999C8 11.6311 8 11.6126 8.0999 11.6126H9.44361C9.53722 11.6126 9.56242 11.6126 9.56242 11.4938V8.1251C9.56242 8.0252 9.56242 8 9.68752 8H14.3748C14.715 8.0135 15.0529 8.05085 15.3873 8.1125C16.0762 8.23985 16.7382 8.48601 17.3434 8.83746C17.7448 9.07371 18.1143 9.35901 18.4433 9.68752C18.6908 9.94447 18.914 10.2226 19.112 10.5187C19.3086 10.8188 19.472 11.1397 19.6002 11.4749C19.616 11.5622 19.6997 11.6212 19.787 11.6063H20.9057C21.0492 11.6063 21.0492 11.6063 21.0555 11.744V12.7691C21.0555 12.8691 21.0182 12.8942 20.9178 12.8942H20.0552C19.9679 12.8942 19.9427 12.8942 19.949 13.0068C19.9832 13.3875 19.9832 13.7695 19.949 14.1502C19.949 14.2564 19.949 14.269 20.0682 14.269H21.0551C21.0987 14.3253 21.0551 14.3815 21.0551 14.4382C21.0614 14.5107 21.0614 14.584 21.0551 14.6565V15.4129C21.0551 15.5191 21.024 15.5506 20.93 15.5506H19.7487C19.6664 15.5349 19.5863 15.5875 19.5674 15.6694C19.2861 16.4007 18.8361 17.0563 18.2547 17.5819C18.0423 17.7732 17.8191 17.9532 17.586 18.1193C17.3358 18.2633 17.0923 18.4131 16.8358 18.5319C16.3638 18.7443 15.8688 18.9009 15.3607 19.0004C14.8783 19.0868 14.3892 19.1259 13.8982 19.1192H9.56062V19.1129L9.56242 19.1115Z" fill="#FEFEFD"/>
</svg>
