<svg width="28" height="28" viewBox="0 0 28 28" fill="none" xmlns="http://www.w3.org/2000/svg">
<path d="M27.5 14C27.5 21.4558 21.4558 27.5 14 27.5C6.54416 27.5 0.5 21.4558 0.5 14C0.5 6.54416 6.54416 0.5 14 0.5C21.4558 0.5 27.5 6.54416 27.5 14Z" fill="#2E3240" stroke="#494C58"/>
<path d="M14.0806 6C10.728 6.01342 8.01347 8.71933 8 12.0613C8 12.7306 8.10838 13.3954 8.32064 14.0301C8.47904 14.4623 8.94909 14.695 9.39029 14.5614C9.81674 14.3984 10.0431 13.9336 9.90717 13.4989C9.72697 13.0042 9.64681 12.4793 9.67053 11.9539C9.74364 9.54012 11.7656 7.64221 14.1871 7.71508C16.6085 7.78796 18.5125 9.80349 18.4394 12.2173C18.3708 14.477 16.5855 16.3122 14.3211 16.4497C14.3211 16.4497 13.4675 16.5015 13.043 16.5532C12.8865 16.5756 12.7314 16.6063 12.5781 16.6453C12.5563 16.6677 12.521 16.6677 12.4986 16.6459L12.4979 16.6453C12.4825 16.6255 12.4825 16.5973 12.4979 16.5775L12.63 15.859L13.4316 12.2652C13.5278 11.8165 13.2412 11.3747 12.791 11.2789C12.3408 11.183 11.8977 11.4687 11.8015 11.9175C11.8015 11.9175 9.89498 20.7141 9.89498 20.794C9.78596 21.2216 10.045 21.6563 10.4741 21.765C10.4785 21.7662 10.4837 21.7675 10.4882 21.7682H10.5324C10.9608 21.8788 11.3981 21.6218 11.5084 21.1948C11.5104 21.1877 11.5123 21.1807 11.5136 21.173C11.5123 21.1596 11.5123 21.1462 11.5136 21.1334C11.5373 21.0298 11.7778 19.8594 11.7778 19.8594C11.9599 18.976 12.6743 18.299 13.5682 18.1622C13.7523 18.1341 14.5257 18.0823 14.5257 18.0823C17.8654 17.7505 20.3029 14.7825 19.9695 11.4534C19.6655 8.41697 17.1421 6.07927 14.0806 6Z" fill="white"/>
<path d="M14.4516 19.9758C13.9034 19.862 13.3673 20.2129 13.2531 20.7588C13.2518 20.764 13.2512 20.7691 13.2499 20.7742C13.1313 21.3169 13.4763 21.8532 14.0214 21.9715C14.022 21.9715 14.0226 21.9715 14.0233 21.9721H14.0515C14.585 22.1006 15.1218 21.7733 15.25 21.2421C15.2513 21.2383 15.2519 21.2338 15.2532 21.23V21.1744C15.3475 20.6259 14.9961 20.0998 14.4516 19.9758Z" fill="#E6007A"/>
</svg>
