<svg width="26" height="26" viewBox="0 0 26 26" fill="none" xmlns="http://www.w3.org/2000/svg">
<path d="M25 13C25 19.6274 19.6274 25 13 25C6.37258 25 1 19.6274 1 13C1 6.37258 6.37258 1 13 1C19.6274 1 25 6.37258 25 13Z" fill="#CCD0D5" fill-opacity="0.1" stroke="#E1DFDF" stroke-opacity="0.2"/>
<path d="M13.268 6.1427L10.0588 10.5587L8.71484 17.0867L13.268 19.857L17.8211 17.0867L16.4497 10.5313L13.268 6.1427ZM9.45542 16.785L10.4703 11.8204L12.7743 18.8147L9.45542 16.785ZM10.7994 10.6958L13.268 7.2947L15.7366 10.6958L13.268 18.1564L10.7994 10.6958ZM13.7343 18.8147L16.0383 11.8204L17.0531 16.785L13.7343 18.8147Z" fill="#B8B8B8"/>
</svg>
