<svg width="30" height="30" viewBox="0 0 30 30" fill="none" xmlns="http://www.w3.org/2000/svg">
<path d="M29 15C29 22.732 22.732 29 15 29C7.26801 29 1 22.732 1 15C1 7.26801 7.26801 1 15 1C22.732 1 29 7.26801 29 15Z" fill="#CCD0D5" fill-opacity="0.1" stroke="#E1DFDF" stroke-opacity="0.2"/>
<path fill-rule="evenodd" clip-rule="evenodd" d="M9.92945 9.06876L7.01199 15.2326C7.00089 15.2555 6.99737 15.2814 7.00195 15.3065C7.00653 15.3316 7.01897 15.3546 7.03745 15.372L14.9168 22.9664C14.9392 22.9879 14.969 23 15 23C15.031 23 15.0608 22.9879 15.0832 22.9664L22.9626 15.3725C22.981 15.355 22.9935 15.3321 22.998 15.307C23.0026 15.2819 22.9991 15.256 22.988 15.2331L20.0705 9.06923C20.0611 9.04853 20.046 9.031 20.0269 9.01872C20.0079 9.00645 19.9857 8.99995 19.9631 9.00001H10.0379C10.0151 8.99972 9.99279 9.00606 9.97356 9.01826C9.95432 9.03046 9.939 9.048 9.92945 9.06876Z" fill="#50AF95"/>
<path fill-rule="evenodd" clip-rule="evenodd" d="M16.0139 15.8656C15.9573 15.8699 15.6651 15.8875 15.0131 15.8875C14.4946 15.8875 14.1265 15.8718 13.9973 15.8656C11.9934 15.777 10.4977 15.4261 10.4977 15.006C10.4977 14.5859 11.9934 14.2355 13.9973 14.1455V15.5162C14.1283 15.5257 14.5036 15.548 15.0221 15.548C15.6443 15.548 15.9559 15.5219 16.012 15.5167V14.1464C18.0117 14.236 19.5041 14.5869 19.5041 15.006C19.5041 15.4252 18.0121 15.776 16.012 15.8652L16.0139 15.8656ZM16.0139 14.0046V12.778H18.8046V10.9075H11.2066V12.778H13.9968V14.0042C11.7289 14.1089 10.0234 14.5608 10.0234 15.1023C10.0234 15.6437 11.7289 16.0951 13.9968 16.2004V20.131H16.0134V16.199C18.2761 16.0942 19.9788 15.6428 19.9788 15.1018C19.9788 14.5608 18.2775 14.1094 16.0134 14.0042L16.0139 14.0046Z" fill="white"/>
<path opacity="0.5" d="M1.5 19C3.2211 24.783 8.5782 29 14.9202 29C21.2623 29 26.6194 24.783 28.3405 19H1.5Z" fill="#7D818A"/>
<path d="M9.6182 24.35V25H6.9082V21.5H9.5532V22.15H7.7132V22.91H9.3382V23.54H7.7132V24.35H9.6182Z" fill="#1D212F"/>
<path d="M12.4927 25L11.8177 24.025H11.7777H11.0727V25H10.2627V21.5H11.7777C12.0877 21.5 12.356 21.5517 12.5827 21.655C12.8127 21.7583 12.9894 21.905 13.1127 22.095C13.236 22.285 13.2977 22.51 13.2977 22.77C13.2977 23.03 13.2344 23.255 13.1077 23.445C12.9844 23.6317 12.8077 23.775 12.5777 23.875L13.3627 25H12.4927ZM12.4777 22.77C12.4777 22.5733 12.4144 22.4233 12.2877 22.32C12.161 22.2133 11.976 22.16 11.7327 22.16H11.0727V23.38H11.7327C11.976 23.38 12.161 23.3267 12.2877 23.22C12.4144 23.1133 12.4777 22.9633 12.4777 22.77Z" fill="#1D212F"/>
<path d="M15.6145 25.06C15.2578 25.06 14.9345 24.9833 14.6445 24.83C14.3578 24.6733 14.1311 24.4583 13.9645 24.185C13.8011 23.9083 13.7195 23.5967 13.7195 23.25C13.7195 22.9033 13.8011 22.5933 13.9645 22.32C14.1311 22.0433 14.3578 21.8283 14.6445 21.675C14.9345 21.5183 15.2595 21.44 15.6195 21.44C15.9228 21.44 16.1961 21.4933 16.4395 21.6C16.6861 21.7067 16.8928 21.86 17.0595 22.06L16.5395 22.54C16.3028 22.2667 16.0095 22.13 15.6595 22.13C15.4428 22.13 15.2495 22.1783 15.0795 22.275C14.9095 22.3683 14.7761 22.5 14.6795 22.67C14.5861 22.84 14.5395 23.0333 14.5395 23.25C14.5395 23.4667 14.5861 23.66 14.6795 23.83C14.7761 24 14.9095 24.1333 15.0795 24.23C15.2495 24.3233 15.4428 24.37 15.6595 24.37C16.0095 24.37 16.3028 24.2317 16.5395 23.955L17.0595 24.435C16.8928 24.6383 16.6861 24.7933 16.4395 24.9C16.1928 25.0067 15.9178 25.06 15.6145 25.06Z" fill="#1D212F"/>
<path d="M19.9819 24.34V25H17.3369V24.475L18.6869 23.2C18.8302 23.0633 18.9269 22.9467 18.9769 22.85C19.0269 22.75 19.0519 22.6517 19.0519 22.555C19.0519 22.415 19.0036 22.3083 18.9069 22.235C18.8136 22.1583 18.6752 22.12 18.4919 22.12C18.3386 22.12 18.2002 22.15 18.0769 22.21C17.9536 22.2667 17.8502 22.3533 17.7669 22.47L17.1769 22.09C17.3136 21.8867 17.5019 21.7283 17.7419 21.615C17.9819 21.4983 18.2569 21.44 18.5669 21.44C18.8269 21.44 19.0536 21.4833 19.2469 21.57C19.4436 21.6533 19.5952 21.7733 19.7019 21.93C19.8119 22.0833 19.8669 22.265 19.8669 22.475C19.8669 22.665 19.8269 22.8433 19.7469 23.01C19.6669 23.1767 19.5119 23.3667 19.2819 23.58L18.4769 24.34H19.9819Z" fill="#1D212F"/>
<path d="M21.8064 25.06C21.5164 25.06 21.258 24.9883 21.0314 24.845C20.8047 24.7017 20.6264 24.495 20.4964 24.225C20.3697 23.9517 20.3064 23.6267 20.3064 23.25C20.3064 22.8733 20.3697 22.55 20.4964 22.28C20.6264 22.0067 20.8047 21.7983 21.0314 21.655C21.258 21.5117 21.5164 21.44 21.8064 21.44C22.0964 21.44 22.3547 21.5117 22.5814 21.655C22.808 21.7983 22.9847 22.0067 23.1114 22.28C23.2414 22.55 23.3064 22.8733 23.3064 23.25C23.3064 23.6267 23.2414 23.9517 23.1114 24.225C22.9847 24.495 22.808 24.7017 22.5814 24.845C22.3547 24.9883 22.0964 25.06 21.8064 25.06ZM21.8064 24.375C22.0197 24.375 22.1864 24.2833 22.3064 24.1C22.4297 23.9167 22.4914 23.6333 22.4914 23.25C22.4914 22.8667 22.4297 22.5833 22.3064 22.4C22.1864 22.2167 22.0197 22.125 21.8064 22.125C21.5964 22.125 21.4297 22.2167 21.3064 22.4C21.1864 22.5833 21.1264 22.8667 21.1264 23.25C21.1264 23.6333 21.1864 23.9167 21.3064 24.1C21.4297 24.2833 21.5964 24.375 21.8064 24.375Z" fill="#1D212F"/>
</svg>
