<svg width="26" height="26" viewBox="0 0 26 26" fill="none" xmlns="http://www.w3.org/2000/svg">
<path d="M25 13C25 19.6274 19.6274 25 13 25C6.37258 25 1 19.6274 1 13C1 6.37258 6.37258 1 13 1C19.6274 1 25 6.37258 25 13Z" fill="#CCD0D5" fill-opacity="0.1" stroke="#E1DFDF" stroke-opacity="0.2" stroke-width="0.875"/>
<path d="M12.9969 6.1416L12.9033 6.45945V15.682L12.9969 15.7753L17.2778 13.2449L12.9969 6.1416Z" fill="#B3B3B3"/>
<path d="M12.9968 6.14209L8.71582 13.2453L12.9968 15.7758V11.2995V6.14209Z" fill="white"/>
<path d="M12.9961 16.5863L12.9434 16.6506V19.9358L12.9961 20.0898L17.2796 14.0571L12.9961 16.5863Z" fill="#B2B2B2"/>
<path d="M12.9964 20.0898V16.5863L8.71533 14.0571L12.9964 20.0898Z" fill="white"/>
<path d="M12.9971 15.7754L17.278 13.245L12.9971 11.2991V15.7754Z" fill="#838383"/>
<path d="M8.71533 13.245L12.9964 15.7754V11.2991L8.71533 13.245Z" fill="#B8B8B8"/>
</svg>
