<svg width="28" height="28" viewBox="0 0 28 28" fill="none" xmlns="http://www.w3.org/2000/svg">
<path d="M27.5 14C27.5 21.4558 21.4558 27.5 14 27.5C6.54416 27.5 0.5 21.4558 0.5 14C0.5 6.54416 6.54416 0.5 14 0.5C21.4558 0.5 27.5 6.54416 27.5 14Z" fill="#2E3240" stroke="#494C58"/>
<path d="M21.0648 9.53438C20.8241 9.34014 20.537 9.07483 20.0139 9.00851C19.5231 8.94218 19.0231 9.27855 18.6852 9.50121C18.3472 9.72388 17.7083 10.3777 17.4444 10.5766C17.1806 10.7756 16.5046 10.9604 15.4167 11.6284C14.3287 12.2964 10.0602 15.101 10.0602 15.101L11.1713 15.1152L6.21759 17.7256H6.71296L6 18.2799C6 18.2799 6.62963 18.4504 7.15741 18.1093V18.2657C7.15741 18.2657 13.0556 15.8874 14.1944 16.5033L13.5 16.7118C13.5602 16.7118 14.6806 16.7876 14.6806 16.7876C14.7077 17.025 14.7857 17.2533 14.909 17.4564C15.0322 17.6595 15.1976 17.8323 15.3935 17.9625C16.0694 18.4173 16.0833 18.6684 16.0833 18.6684C16.0833 18.6684 15.7315 18.8152 15.7315 19C15.7315 19 16.25 18.8389 16.7315 18.8531C17.0371 18.865 17.3402 18.9143 17.6343 19C17.6343 19 17.5972 18.801 17.1296 18.6684C16.662 18.5357 16.1991 18.0146 15.9722 17.7303C15.8333 17.5494 15.7427 17.3346 15.7094 17.107C15.6761 16.8794 15.7013 16.6469 15.7824 16.4322C15.9444 16.0011 16.5093 15.7643 17.6759 15.1484C19.0509 14.4188 19.3657 13.8787 19.5602 13.4571C19.7546 13.0354 20.0417 12.1969 20.2037 11.8037C20.4074 11.2967 20.6574 11.0267 20.8657 10.8656C21.0741 10.7045 22 10.3492 22 10.3492C22 10.3492 21.2917 9.71914 21.0648 9.53438Z" fill="white"/>
</svg>
