<svg width="28" height="28" viewBox="0 0 28 28" fill="none" xmlns="http://www.w3.org/2000/svg">
<path d="M14 0C11.2311 0 8.52431 0.821086 6.22202 2.35942C3.91973 3.89776 2.12532 6.08426 1.06569 8.64243C0.00606593 11.2006 -0.271181 14.0155 0.269012 16.7313C0.809205 19.447 2.14258 21.9416 4.10051 23.8995C6.05844 25.8574 8.55301 27.1908 11.2687 27.731C13.9845 28.2712 16.7994 27.9939 19.3576 26.9343C21.9157 25.8747 24.1022 24.0803 25.6406 21.778C27.1789 19.4757 28 16.7689 28 14C28.0053 12.1668 27.6496 10.3506 26.953 8.65489C26.2564 6.95922 25.2327 5.41736 23.9402 4.11734C22.6477 2.81731 21.1119 1.78459 19.4203 1.07814C17.7287 0.371687 15.9145 0.00533413 14.0814 0H14ZM14.2373 14.4746L12.7797 19.3898H20.5763C20.6279 19.388 20.6794 19.3964 20.7278 19.4145C20.7762 19.4326 20.8206 19.4601 20.8584 19.4953C20.8961 19.5306 20.9266 19.573 20.948 19.62C20.9694 19.667 20.9813 19.7178 20.9831 19.7695V19.8983L20.3051 22.2373C20.2752 22.3479 20.2086 22.4451 20.1162 22.5128C20.0238 22.5806 19.9111 22.6149 19.7966 22.6102H7.86441L9.86441 15.7966L7.62712 16.4746L8.1356 14.9153L10.3729 14.2373L13.1864 4.67797C13.2174 4.56797 13.2843 4.47151 13.3764 4.40393C13.4686 4.33636 13.5807 4.30156 13.6949 4.30508H16.7119C16.7635 4.30327 16.815 4.31166 16.8634 4.32976C16.9118 4.34787 16.9562 4.37534 16.994 4.4106C17.0317 4.44586 17.0622 4.48822 17.0836 4.53526C17.105 4.5823 17.1169 4.6331 17.1186 4.68474V4.81356L14.7458 12.8814L16.9831 12.2034L16.5085 13.8305L14.2373 14.4746Z" fill="#345D9D"/>
</svg>
