<svg width="30" height="30" viewBox="0 0 30 30" fill="none" xmlns="http://www.w3.org/2000/svg">
<path d="M29 15C29 22.732 22.732 29 15 29C7.26801 29 1 22.732 1 15C1 7.26801 7.26801 1 15 1C22.732 1 29 7.26801 29 15Z" fill="#CCD0D5" fill-opacity="0.1" stroke="#E1DFDF" stroke-opacity="0.2"/>
<path fill-rule="evenodd" clip-rule="evenodd" d="M9.92945 9.06876L7.01199 15.2326C7.00089 15.2555 6.99737 15.2814 7.00195 15.3065C7.00653 15.3316 7.01897 15.3546 7.03745 15.372L14.9168 22.9664C14.9392 22.9879 14.969 23 15 23C15.031 23 15.0608 22.9879 15.0832 22.9664L22.9626 15.3725C22.981 15.355 22.9935 15.3321 22.998 15.307C23.0026 15.2819 22.9991 15.256 22.988 15.2331L20.0705 9.06923C20.0611 9.04853 20.046 9.031 20.0269 9.01872C20.0079 9.00645 19.9857 8.99995 19.9631 9.00001H10.0379C10.0151 8.99972 9.99279 9.00606 9.97356 9.01826C9.95432 9.03046 9.939 9.048 9.92945 9.06876Z" fill="#50AF95"/>
<path fill-rule="evenodd" clip-rule="evenodd" d="M16.0139 15.8656C15.9573 15.8699 15.6651 15.8875 15.0131 15.8875C14.4946 15.8875 14.1265 15.8718 13.9973 15.8656C11.9934 15.777 10.4977 15.4261 10.4977 15.006C10.4977 14.5859 11.9934 14.2355 13.9973 14.1455V15.5162C14.1283 15.5257 14.5036 15.548 15.0221 15.548C15.6443 15.548 15.9559 15.5219 16.012 15.5167V14.1464C18.0117 14.236 19.5041 14.5869 19.5041 15.006C19.5041 15.4252 18.0121 15.776 16.012 15.8652L16.0139 15.8656ZM16.0139 14.0046V12.778H18.8046V10.9075H11.2066V12.778H13.9968V14.0042C11.7289 14.1089 10.0234 14.5608 10.0234 15.1023C10.0234 15.6437 11.7289 16.0951 13.9968 16.2004V20.131H16.0134V16.199C18.2761 16.0942 19.9788 15.6428 19.9788 15.1018C19.9788 14.5608 18.2775 14.1094 16.0134 14.0042L16.0139 14.0046Z" fill="white"/>
</svg>
