<svg width="30" height="30" viewBox="0 0 30 30" fill="none" xmlns="http://www.w3.org/2000/svg">
<path d="M29 15C29 22.732 22.732 29 15 29C7.26801 29 1 22.732 1 15C1 7.26801 7.26801 1 15 1C22.732 1 29 7.26801 29 15Z" fill="#CCD0D5" fill-opacity="0.1" stroke="#E1DFDF" stroke-opacity="0.2"/>
<path d="M10.0918 21.8019C10.6256 22.4478 11.2749 22.9747 12.002 23.3521C12.729 23.7294 13.5194 23.9497 14.3272 24C15.2923 23.9456 16.2029 23.5077 16.878 22.7732C18.2098 21.5617 19.608 20.4351 21.0653 19.3993L21.8835 19.0415C22.2204 18.8881 22.798 18.5303 23.3274 17.8657C23.9049 17.0478 24.0012 16.1788 24.0012 15.872C23.9372 14.9047 23.6388 13.9714 23.1349 13.1627C21.8199 15.6513 19.9354 17.7475 17.6557 19.2576C15.3759 20.7676 12.7744 21.6427 10.0918 21.8019Z" fill="#0293D6"/>
<path d="M11.9199 7.28392C12.2792 6.88084 12.712 6.55967 13.1919 6.33995C13.6718 6.12024 14.1888 6.0066 14.7114 6.00594C15.0425 5.98239 15.3747 6.02902 15.6887 6.14311C16.0027 6.2572 16.2922 6.43647 16.5403 6.67049C17.9209 7.7093 19.5653 8.27961 21.257 8.30631C21.6902 8.35743 22.5565 8.51079 23.1341 9.27758C23.5672 9.89101 23.6154 10.5556 23.6154 10.8623C23.5766 11.6522 23.4139 12.4297 23.1341 13.1627L11.9199 7.28392Z" fill="#EBE638"/>
<path d="M10.091 21.8022C9.65783 21.7511 9.08028 21.5977 8.40647 21.291C7.73266 20.9843 6.91446 20.6264 6.38504 19.6552C6.04813 19.0417 6 18.4283 6 18.0194C6.01175 16.9348 6.2588 15.8677 6.72194 14.9011C7.18273 13.7063 7.4903 12.4511 7.6364 11.1694L7.87705 10.147C8.02143 9.63577 8.11769 9.12458 8.4546 8.61338L8.98402 7.99995C9.85845 7.41602 10.8933 7.16377 11.9199 7.28428C10.5452 9.37297 9.66176 11.7811 9.34356 14.3071C9.02535 16.833 9.28165 19.4031 10.091 21.8022Z" fill="#BAD147"/>
<path d="M11.9192 7.28436C11.8711 7.28436 14.5182 7.43772 16.1546 8.05115L17.5023 8.66459C16.9728 8.61347 13.6038 8.46011 11.0529 11.1694C7.82825 14.6456 8.88709 19.3997 8.93522 19.6553C8.18794 18.6567 7.81122 17.4018 7.87637 16.128C7.93973 14.4375 8.3316 12.7792 9.02735 11.2573C9.72309 9.73536 10.7077 8.38272 11.9192 7.28436Z" fill="#78B650"/>
<path d="M18.3683 19.9105C19.2788 18.1524 19.6822 16.1487 19.5282 14.1489C19.3741 12.1491 18.6694 10.2416 17.502 8.66418C18.8961 8.91175 20.1784 9.62858 21.1598 10.709C21.7373 11.2202 22.4593 11.9869 23.1331 13.1627C22.1814 15.8475 20.5285 18.1884 18.3683 19.9105Z" fill="#2F8260"/>
<path d="M19.9099 10.9142C19.1398 9.534 18.0328 8.92056 17.5515 8.66497C17.1665 8.56273 13.5568 7.9493 10.8134 10.7609C8.59947 13.0101 8.45508 15.9239 8.45508 16.4862C8.46527 18.4128 9.07438 20.2817 10.1877 21.8027C11.6185 22.0953 13.0886 22.0953 14.5194 21.8027C15.2413 21.6493 16.9259 21.3426 18.3697 20.0135C18.5623 19.809 20.6799 17.7131 20.8243 14.3903C20.8243 13.828 20.8243 12.3967 19.9099 10.9142ZM18.1772 18.3265C17.7303 18.8429 17.1872 19.255 16.5823 19.5366C15.9775 19.8182 15.3242 19.9632 14.6638 19.9624C14.375 19.9624 12.4498 19.9112 11.1022 18.2243C10.9097 17.9687 9.94709 16.7418 9.99522 14.9015C10.0915 12.4478 11.9204 11.0165 12.3054 10.7097C12.6423 10.4541 13.4605 9.89183 14.6638 9.84071C14.9525 9.7896 15.9633 9.73848 16.974 10.3519C19.1879 11.6299 19.2842 14.6971 19.2842 14.9015C19.2842 15.4639 19.2842 16.9974 18.1772 18.3265Z" fill="#085229"/>
</svg>
