<svg width="28" height="29" viewBox="0 0 28 29" fill="none" xmlns="http://www.w3.org/2000/svg">
<path d="M27.5811 17.3886C25.7111 24.8896 18.1139 29.4545 10.6121 27.584C3.11341 25.714 -1.45151 18.1163 0.419327 10.616C2.28852 3.11422 9.88573 -1.45104 17.3852 0.418975C24.8865 2.28899 29.4511 9.8875 27.5809 17.3888L27.581 17.3886H27.5811Z" fill="#6D7381"/>
<path d="M19.9686 12.4321C20.2183 10.7509 18.9475 9.8472 17.2099 9.24432L17.7736 6.96696L16.3973 6.62152L15.8486 8.83893C15.4867 8.74803 15.1152 8.66239 14.7459 8.57748L15.2986 6.34543L13.9231 6L13.3591 8.27663C13.0597 8.20796 12.7656 8.1401 12.4803 8.06859L12.4819 8.06143L10.584 7.58403L10.2178 9.06469C10.2178 9.06469 11.2389 9.30046 11.2174 9.31497C11.7748 9.45508 11.8755 9.8267 11.8588 10.1212L11.2167 12.7157C11.2551 12.7255 11.3049 12.7397 11.3598 12.762C11.3139 12.7505 11.265 12.7379 11.2143 12.7257L10.3143 16.3602C10.2462 16.5307 10.0733 16.7867 9.68363 16.6895C9.69742 16.7096 8.68331 16.438 8.68331 16.438L8 18.0249L9.79104 18.4746C10.1242 18.5588 10.4507 18.6469 10.7723 18.7297L10.2028 21.0332L11.5775 21.3786L12.1415 19.0996C12.517 19.2023 12.8815 19.297 13.2383 19.3863L12.6762 21.6546L14.0526 22L14.622 19.7008C16.9689 20.1482 18.7336 19.9678 19.4764 17.8297C20.0749 16.1082 19.4466 15.1152 18.2119 14.4677C19.1112 14.2588 19.7885 13.663 19.9691 12.4323L19.9687 12.432L19.9686 12.4321ZM16.8241 16.8736C16.3988 18.5951 13.5212 17.6645 12.5883 17.4312L13.3441 14.3795C14.2769 14.614 17.2686 15.0783 16.8242 16.8736H16.8241ZM17.2498 12.4072C16.8618 13.9731 14.4667 13.1775 13.6898 12.9825L14.375 10.2147C15.1519 10.4098 17.6539 10.7739 17.2499 12.4072H17.2498Z" fill="white"/>
</svg>
