<svg width="26" height="26" viewBox="0 0 26 26" fill="none" xmlns="http://www.w3.org/2000/svg">
<path d="M25 13C25 19.6274 19.6274 25 13 25C6.37258 25 1 19.6274 1 13C1 6.37258 6.37258 1 13 1C19.6274 1 25 6.37258 25 13Z" fill="#CCD0D5" fill-opacity="0.1" stroke="#E1DFDF" stroke-opacity="0.2"/>
<path d="M18.0032 10.6151C17.4959 10.0957 16.7942 9.30263 16.2226 8.74014L16.1888 8.71389C16.1326 8.66378 16.0691 8.62449 16.0011 8.59764C14.623 8.31264 8.20914 6.98328 8.08401 7.00016C8.04895 7.0056 8.01543 7.0197 7.98594 7.04141L7.95381 7.06953C7.91425 7.11408 7.8842 7.1679 7.86588 7.22703L7.85742 7.25141V7.38453V7.40515C8.57947 9.6345 11.4304 16.9375 11.9918 18.6513C12.0257 18.7675 12.0899 18.9888 12.21 19H12.237C12.3013 19 12.5752 18.5988 12.5752 18.5988C12.5752 18.5988 17.4723 12.0138 17.9677 11.3126C18.0319 11.2262 18.0885 11.1333 18.1368 11.0351C18.1492 10.9583 18.1433 10.8792 18.1199 10.8056C18.0965 10.732 18.0563 10.6664 18.0032 10.6151ZM13.8316 11.382L15.9217 9.46013L17.1476 10.7126L13.8316 11.382ZM13.02 11.2564L9.42157 7.9864L15.2436 9.17701L13.02 11.2564ZM13.3446 12.1132L17.0275 11.4551L12.817 17.08L13.3446 12.1132ZM8.93288 8.31264L12.719 11.8751L12.1711 17.0838L8.93288 8.31264Z" fill="#FF060A"/>
</svg>
