<svg width="28" height="28" viewBox="0 0 28 28" fill="none" xmlns="http://www.w3.org/2000/svg">
<path d="M14 28C6.3 28 0 21.7 0 14C0 6.3 6.3 0 14 0C21.7 0 28 6.3 28 14C28 21.7 21.7 28 14 28Z" fill="#4F40FF"/>
<path d="M21.0556 22.3999H6.94361C6.20441 22.3999 5.59961 21.7951 5.59961 21.0559V6.94388C5.59961 6.20468 6.20441 5.59988 6.94361 5.59988H21.0556C21.7948 5.59988 22.3996 6.20468 22.3996 6.94388V21.0559C22.3996 21.7951 21.7948 22.3999 21.0556 22.3999Z" fill="white"/>
<path d="M8.87558 20.7088C8.83134 20.7088 8.7955 20.6684 8.7955 20.6242V18.3668C8.7955 18.3226 8.75966 18.2823 8.71542 18.2823H7.91854C7.87374 18.2823 7.83398 18.2464 7.83398 18.2022V17.766C7.83398 17.7217 7.8743 17.6814 7.91854 17.6814H10.3713C10.4156 17.6814 10.4559 17.7212 10.4559 17.766V18.2022C10.4559 18.2464 10.4156 18.2823 10.3713 18.2823H9.57895C9.5347 18.2823 9.49438 18.322 9.49438 18.3668V20.6242C9.49438 20.6684 9.45854 20.7088 9.4143 20.7088H8.87558Z" fill="#4F40FF"/>
<path d="M12.9028 17.766C12.9028 17.7217 12.9387 17.6814 12.9829 17.6814H13.5171C13.5614 17.6814 13.6017 17.7212 13.6017 17.766V19.3065C13.6017 20.2193 13.0854 20.7491 12.2661 20.7491C11.4513 20.7491 10.9395 20.2193 10.9395 19.3065V17.766C10.9395 17.7217 10.9753 17.6814 11.0195 17.6814H11.5538C11.598 17.6814 11.6383 17.7212 11.6383 17.766V19.3284C11.6383 19.778 11.8696 20.0984 12.2706 20.0984C12.6715 20.0984 12.9028 19.778 12.9028 19.3284V17.766Z" fill="#4F40FF"/>
<path d="M16.0561 18.6698C15.985 18.6698 15.9626 18.6429 15.9357 18.5897C15.8422 18.3713 15.6372 18.2336 15.3259 18.2336C15.0453 18.2336 14.8095 18.3316 14.8095 18.5186C14.8095 18.7236 15.0279 18.8081 15.5084 18.8658C16.2387 18.9504 16.657 19.1732 16.657 19.7517C16.657 20.4019 16.0869 20.7446 15.3572 20.7446C14.725 20.7446 14.1818 20.4372 14.0972 19.792C14.0882 19.7299 14.1196 19.7075 14.1818 19.7075H14.6718C14.7339 19.7075 14.7698 19.7344 14.7877 19.7831C14.8543 19.997 15.0817 20.1616 15.411 20.1616C15.7005 20.1616 15.9542 20.0547 15.9542 19.8279C15.9542 19.5563 15.6871 19.5076 15.1528 19.4404C14.5385 19.3603 14.1112 19.1822 14.1112 18.6166C14.1112 18.051 14.5967 17.6461 15.3578 17.6461C16.0432 17.6461 16.5198 18.0157 16.6178 18.5679C16.6312 18.63 16.6133 18.6704 16.5467 18.6704H16.0561V18.6698Z" fill="#4F40FF"/>
<path d="M17.2617 20.7088C17.2175 20.7088 17.1816 20.6684 17.1816 20.6242V17.766C17.1816 17.7217 17.2175 17.6814 17.2617 17.6814H18.4724C19.3718 17.6814 20.0707 18.3002 20.0707 19.204C20.0707 20.0944 19.3808 20.7088 18.4724 20.7088H17.2617ZM18.4724 20.1073C18.958 20.1073 19.336 19.7243 19.336 19.1945C19.336 18.6648 18.9574 18.2817 18.468 18.2817H17.9651C17.9208 18.2817 17.885 18.3215 17.885 18.3663V20.0267C17.885 20.0709 17.9208 20.1068 17.9651 20.1068H18.4724V20.1073Z" fill="#4F40FF"/>
<path d="M21.9522 16.016H6.04822C5.92502 16.016 5.82422 15.9152 5.82422 15.792V6.94404C5.82422 6.32804 6.32822 5.82404 6.94422 5.82404H21.0562C21.6722 5.82404 22.1762 6.32804 22.1762 6.94404V15.792C22.1762 15.9152 22.0754 16.016 21.9522 16.016Z" fill="#4F40FF"/>
<path d="M14.8252 14.1992H13.3692C13.2768 14.1992 13.2012 14.1236 13.2012 14.0312V7.87125C13.2012 7.77885 13.2768 7.70325 13.3692 7.70325H14.8252C14.9176 7.70325 14.9932 7.77885 14.9932 7.87125V14.0312C14.9932 14.1236 14.9176 14.1992 14.8252 14.1992Z" fill="white"/>
<path d="M17.3033 9.49525H10.6953C10.6029 9.49525 10.5273 9.41965 10.5273 9.32725V7.87125C10.5273 7.77885 10.6029 7.70325 10.6953 7.70325H17.3033C17.3957 7.70325 17.4713 7.77885 17.4713 7.87125V9.32725C17.4713 9.41965 17.3957 9.49525 17.3033 9.49525Z" fill="white"/>
</svg>
