<svg width="28" height="28" viewBox="0 0 28 28" fill="none" xmlns="http://www.w3.org/2000/svg">
<path d="M22.8313 5.87622L22.0625 6.64502C23.897 8.65118 24.9143 11.2712 24.9143 13.9897C24.9143 16.7082 23.897 19.3282 22.0625 21.3344L22.8313 22.1032C24.8715 19.8903 26.0041 16.9906 26.0041 13.9807C26.0041 10.9709 24.8715 8.07121 22.8313 5.85828V5.87622Z" fill="#5A5564"/>
<path d="M6.6637 5.94293C8.66986 4.10843 11.2899 3.0911 14.0084 3.0911C16.7268 3.0911 19.3469 4.10843 21.3531 5.94293L22.1219 5.17412C19.9089 3.13396 17.0093 2.00128 13.9994 2.00128C10.9895 2.00128 8.08989 3.13396 5.87695 5.17412L6.6637 5.94293Z" fill="#5A5564"/>
<path d="M5.94165 21.3421C4.10932 19.3364 3.09333 16.718 3.09333 14.0013C3.09333 11.2846 4.10932 8.66618 5.94165 6.66047L5.17284 5.89166C3.13268 8.1046 2 11.0042 2 14.0141C2 17.024 3.13268 19.9236 5.17284 22.1366L5.94165 21.3421Z" fill="#5A5564"/>
<path d="M21.3429 22.0519C19.3368 23.8864 16.7167 24.9037 13.9983 24.9037C11.2798 24.9037 8.65973 23.8864 6.65357 22.0519L5.88477 22.8207C8.0977 24.8608 10.9974 25.9935 14.0072 25.9935C17.0171 25.9935 19.9167 24.8608 22.1297 22.8207L21.3429 22.0519Z" fill="#5A5564"/>
<path d="M18.853 11.4347C18.6992 9.83041 17.3153 9.29224 15.565 9.12823V6.91919H14.2119V9.08723C13.8557 9.08723 13.4918 9.08723 13.1305 9.08723V6.91919H11.7876V9.14361H9.04297V10.5915C9.04297 10.5915 10.0424 10.5736 10.027 10.5915C10.2073 10.5717 10.3881 10.6226 10.5315 10.7335C10.6749 10.8444 10.7697 11.0067 10.7959 11.1861V17.275C10.792 17.3383 10.7755 17.4002 10.7473 17.4569C10.7192 17.5137 10.6799 17.5643 10.6318 17.6056C10.5847 17.6478 10.5295 17.6799 10.4696 17.7002C10.4097 17.7204 10.3464 17.7284 10.2833 17.7235C10.3013 17.7389 9.29924 17.7235 9.29924 17.7235L9.04297 19.3406H11.762V21.6009H13.1151V19.3739H14.1965V21.5906H15.5522V19.3559C17.8381 19.2176 19.4321 18.6538 19.632 16.5139C19.7935 14.7918 18.9837 14.023 17.6895 13.7129C18.4762 13.3259 18.9632 12.6084 18.853 11.4347ZM16.9566 16.2474C16.9566 17.9285 14.0761 17.7363 13.1587 17.7363V14.7533C14.0761 14.7559 16.9566 14.492 16.9566 16.2474ZM16.3287 12.0446C16.3287 13.5822 13.9249 13.3951 13.1612 13.3951V10.6838C13.9249 10.6838 16.3287 10.4429 16.3287 12.0446Z" fill="#F09242"/>
<path d="M13.9974 28C11.2287 27.9995 8.52232 27.178 6.22042 25.6395C3.91853 24.101 2.12451 21.9144 1.0652 19.3564C0.00589328 16.7983 -0.271137 13.9836 0.269137 11.2681C0.809412 8.55262 2.14273 6.05829 4.10051 4.10051C6.05829 2.14273 8.55262 0.809412 11.2681 0.269137C13.9836 -0.271137 16.7983 0.00589328 19.3564 1.0652C21.9144 2.12451 24.101 3.91853 25.6395 6.22042C27.178 8.52232 27.9995 11.2287 28 13.9974C28.0003 15.8364 27.6384 17.6574 26.9348 19.3564C26.2312 21.0554 25.1998 22.5992 23.8995 23.8995C22.5992 25.1998 21.0554 26.2312 19.3564 26.9348C17.6574 27.6384 15.8364 28.0003 13.9974 28ZM13.9974 1.09171C11.4466 1.09374 8.95361 1.85194 6.83358 3.27048C4.71354 4.68902 3.06164 6.70423 2.08664 9.06138C1.11165 11.4185 0.857334 14.0118 1.35585 16.5135C1.85436 19.0151 3.08332 21.3129 4.8874 23.1162C6.69148 24.9196 8.98968 26.1476 11.4915 26.6452C13.9934 27.1427 16.5866 26.8873 18.9434 25.9114C21.3001 24.9355 23.3147 23.2828 24.7324 21.1622C26.1501 19.0416 26.9073 16.5483 26.9083 13.9974C26.909 12.302 26.5754 10.6231 25.9268 9.05665C25.2781 7.49022 24.3271 6.06701 23.128 4.8684C21.9289 3.66979 20.5053 2.71929 18.9386 2.07126C17.3719 1.42323 15.6929 1.09037 13.9974 1.09171Z" fill="#2E3240"/>
</svg>
