<svg width="64" height="64" viewBox="0 0 64 64" fill="none" xmlns="http://www.w3.org/2000/svg">
<circle cx="32" cy="32" r="32" fill="#B9BFF4"/>
<path fill-rule="evenodd" clip-rule="evenodd" d="M16.4087 28.9766C16.4087 22.0323 22.0382 16.4028 28.9825 16.4028C35.9237 16.4104 41.5487 22.0354 41.5563 28.9766C41.5563 35.921 35.9268 41.5504 28.9825 41.5504C22.0382 41.5504 16.4087 35.921 16.4087 28.9766ZM38.2727 22.4323C36.1468 19.4058 32.681 17.6033 28.9825 17.6003C23.6261 17.6082 18.9985 21.3465 17.8649 26.5816H20.0862C20.3584 25.5243 21.3123 24.7858 22.404 24.7872C23.7241 24.7888 24.7929 25.8603 24.7912 27.1804C24.7891 27.6066 24.6719 28.0243 24.4517 28.3893L27.1749 31.1124C27.9172 30.6597 28.8502 30.6597 29.5926 31.1124L33.5133 27.1918C33.2931 26.8268 33.1759 26.4091 33.1738 25.9829C33.1738 24.6602 34.2461 23.5879 35.5688 23.5879C35.9946 23.5908 36.4116 23.7087 36.7759 23.9292L38.2727 22.4323ZM36.7663 25.9829C36.7663 26.6443 36.2302 27.1804 35.5688 27.1804C34.9074 27.1804 34.3713 26.6443 34.3713 25.9829C34.3713 25.3215 34.9074 24.7854 35.5688 24.7854C36.2302 24.7854 36.7663 25.3215 36.7663 25.9829ZM28.3837 34.3654C29.0451 34.3654 29.5812 33.8293 29.5812 33.1679C29.5812 32.5065 29.0451 31.9704 28.3837 31.9704C27.7223 31.9704 27.1862 32.5065 27.1862 33.1679C27.1862 33.8293 27.7223 34.3654 28.3837 34.3654ZM23.5937 27.1804C23.5937 27.8418 23.0576 28.3779 22.3962 28.3779C21.7348 28.3779 21.1987 27.8418 21.1987 27.1804C21.1987 26.519 21.7348 25.9829 22.3962 25.9829C23.0576 25.9829 23.5937 26.519 23.5937 27.1804ZM28.9825 40.3529C30.9166 40.3546 32.8192 39.8627 34.51 38.9239C39.9981 35.8767 41.9768 28.9574 38.9296 23.4692L37.6243 24.7739C37.8444 25.1389 37.9617 25.5566 37.9638 25.9828C37.9638 27.3055 36.8915 28.3778 35.5688 28.3778C35.1425 28.3757 34.7248 28.2584 34.3599 28.0383L30.4393 31.9589C30.6594 32.3239 30.7767 32.7416 30.7788 33.1678C30.7788 34.4905 29.7065 35.5628 28.3837 35.5628C27.061 35.5628 25.9887 34.4905 25.9887 33.1678C25.9908 32.7416 26.1081 32.3239 26.3282 31.9589L23.6051 29.2358C23.2402 29.4559 22.8225 29.5732 22.3962 29.5753C21.3075 29.5712 20.3584 28.8332 20.0862 27.7791H17.6703C17.6273 28.1819 17.6059 28.5869 17.6062 28.9921C17.6105 35.2708 22.7038 40.3571 28.9825 40.3529Z" fill="#1F53FF"/>
<path fill-rule="evenodd" clip-rule="evenodd" d="M43.9512 19.9956C45.04 19.9914 45.989 19.2535 46.2612 18.1993H49.9388V17.0018H46.2612C45.989 15.9475 45.04 15.2096 43.9512 15.2055C42.6285 15.2055 41.5562 16.2778 41.5562 17.6005C41.5583 18.0268 41.6756 18.4445 41.8957 18.8094L40.8437 19.8614C35.8101 13.3035 26.4132 12.0678 19.8553 17.1015C13.2974 22.1351 12.0617 31.532 17.0954 38.0899C21.8468 44.2801 30.5565 45.7817 37.1063 41.5399L38.9133 43.3469L39.76 44.1935L44.5799 49.0135C45.8058 50.2394 47.7932 50.2394 49.0191 49.0135C50.2449 47.7876 50.2449 45.8002 49.0191 44.5743L44.1991 39.7544L43.3525 38.9078L41.5454 37.1007C44.7532 32.1598 44.7532 25.7939 41.5454 20.853L42.7429 19.6555C43.1077 19.8757 43.5252 19.9932 43.9512 19.9956ZM43.9512 16.403C44.6126 16.403 45.1487 16.9391 45.1487 17.6005C45.1487 18.2619 44.6126 18.798 43.9512 18.798C43.2898 18.798 42.7537 18.2619 42.7537 17.6005C42.7537 16.9391 43.2899 16.403 43.9512 16.403ZM48.2036 48.1669C48.9533 47.4 48.9393 46.1706 48.1724 45.421L43.3525 40.601L40.6066 43.3469L45.4266 48.1669L45.4364 48.1768C45.4434 48.184 45.4506 48.1911 45.4578 48.1981C46.2246 48.9477 47.454 48.9337 48.2036 48.1669ZM42.5058 39.7544L39.76 42.5003L38.1026 40.8429C38.1509 40.8059 38.1974 40.7668 38.244 40.7276C38.2788 40.6983 38.3137 40.669 38.3493 40.6405C38.4325 40.5741 38.5289 40.4944 38.6181 40.4196C38.7493 40.3094 38.8786 40.1981 39.0055 40.0837C39.0463 40.0463 39.0859 40.0089 39.1255 39.9715C39.1493 39.949 39.1731 39.9265 39.1971 39.9041C39.4426 39.6742 39.6803 39.4365 39.9102 39.191C39.9327 39.1669 39.9552 39.1431 39.9777 39.1193C40.0151 39.0797 40.0525 39.0401 40.0899 38.9994C40.2042 38.8724 40.3156 38.7431 40.4258 38.612C40.5008 38.5234 40.5745 38.4338 40.6467 38.3431C40.6751 38.3075 40.7044 38.2726 40.7339 38.2376L40.7339 38.2376C40.7728 38.1914 40.8117 38.1451 40.8485 38.097L42.5058 39.7544ZM39.5953 37.7432C39.8007 37.4947 39.9953 37.2366 40.1839 36.9732C43.6103 32.177 43.6103 25.7335 40.1839 20.9374C35.7557 14.739 27.1412 13.3041 20.943 17.7323C14.7447 22.1604 13.3097 30.7749 17.7378 36.9732C22.166 43.1715 30.7805 44.6065 36.9788 40.1783C37.2422 39.9897 37.5003 39.7951 37.7488 39.5897C37.7862 39.5585 37.823 39.5259 37.8597 39.4935C37.894 39.4632 37.9281 39.433 37.9625 39.4041C38.1765 39.2209 38.3832 39.0317 38.5828 38.8365C38.6706 38.7515 38.7571 38.665 38.8421 38.5772C39.0373 38.3769 39.2265 38.1701 39.4097 37.9569C39.4315 37.9317 39.4536 37.9067 39.4758 37.8816C39.5162 37.8358 39.5566 37.79 39.5953 37.7432Z" fill="#1F53FF"/>
</svg>
