<svg width="64" height="64" viewBox="0 0 64 64" fill="none" xmlns="http://www.w3.org/2000/svg">
<circle cx="32" cy="32" r="32" fill="#B9F4BC"/>
<path fill-rule="evenodd" clip-rule="evenodd" d="M32.2791 31.6248H44.4818C44.8729 31.6248 45.1929 31.9448 45.2 32.3359C45.2 35.927 43.7849 39.3404 41.2249 41.9501C38.672 44.5101 35.2089 45.9466 31.5964 45.9324C24.1013 45.9324 18 39.831 18 32.3359C18 28.7448 19.408 25.3315 21.968 22.7217C24.5067 20.1617 27.9698 18.7252 31.5822 18.7395H31.5893C31.9804 18.7466 32.2862 19.0666 32.2791 19.4506V31.6248ZM31.5964 44.5172C34.8249 44.5244 37.9253 43.2444 40.208 40.9546C42.3342 38.7928 43.5787 36.0337 43.7493 33.047H31.5964C31.2053 33.047 30.8569 32.727 30.8569 32.3359V20.183C27.8844 20.3466 25.0756 21.6124 22.9707 23.7244C20.6951 26.0141 19.4222 29.1075 19.4222 32.3359C19.4222 39.0488 24.8836 44.5101 31.5964 44.5172Z" fill="#1BB978"/>
<path fill-rule="evenodd" clip-rule="evenodd" d="M45.9964 18.0284C45.9964 18.0213 45.9964 18.0213 45.9893 18.0142C43.3795 15.4542 39.9804 14.0391 36.3893 14.0391C36.0053 14.0391 35.6924 14.352 35.6924 14.7431V14.7502V27.6426C35.6782 28.0266 35.9768 28.3466 36.3608 28.3537H36.375H49.2604C49.6515 28.3537 49.9715 28.0337 49.9715 27.6426C49.9715 24.0515 48.5635 20.6311 45.9964 18.0284ZM37.1146 15.4826C38.4302 15.568 39.7315 15.8595 40.9546 16.3502L37.1146 20.1902V15.4826ZM42.3057 16.9973L37.1146 22.2026V25.8791L44.4675 18.5191C43.8062 17.936 43.0808 17.424 42.3057 16.9973ZM38.0533 26.9315L45.4559 19.5288C46.039 20.1902 46.551 20.9084 46.9848 21.6764L41.7297 26.9315H38.0533ZM47.639 23.0346L43.7422 26.9315H48.5279C48.4497 25.5946 48.151 24.2791 47.639 23.0346Z" fill="#1BB978"/>
</svg>
