<svg width="12" height="10" viewBox="0 0 12 10" fill="none" xmlns="http://www.w3.org/2000/svg">
<path d="M11.4395 4.97461C11.4395 4.7168 11.334 4.44727 11.1641 4.2832L7.58398 0.708984C7.39062 0.509766 7.15625 0.410156 6.93359 0.410156C6.37109 0.410156 6.00195 0.796875 6.00195 1.30078C6.00195 1.58789 6.13086 1.80469 6.30664 1.97461L7.57812 3.24023L8.49805 4.08984L7.34375 4.03125H1.40234C0.810547 4.03125 0.412109 4.40625 0.412109 4.97461C0.412109 5.53711 0.810547 5.91797 1.40234 5.91797H7.34375L8.49805 5.85938L7.57812 6.70898L6.30664 7.96875C6.13086 8.13867 6.00195 8.35547 6.00195 8.64258C6.00195 9.14648 6.37109 9.5332 6.93359 9.5332C7.15625 9.5332 7.39062 9.43359 7.58398 9.24023L11.1641 5.66602C11.334 5.49609 11.4395 5.22656 11.4395 4.97461Z" fill="#7795F8"/>
</svg>
