<svg width="6" height="9" viewBox="0 0 6 9" fill="none" xmlns="http://www.w3.org/2000/svg">
<path d="M4.13281 8.74219C4.30371 8.9082 4.49902 8.99121 4.73828 8.99121C5.22168 8.99121 5.62207 8.5957 5.62207 8.1123C5.62207 7.86816 5.51953 7.64355 5.33398 7.46289L2.42871 4.66016L5.33398 1.86719C5.52441 1.68164 5.62207 1.45703 5.62207 1.21777C5.62207 0.739258 5.22168 0.34375 4.73828 0.34375C4.49414 0.34375 4.29883 0.421875 4.13281 0.587891L0.714844 3.92285C0.480469 4.15723 0.37793 4.38184 0.373047 4.66504C0.373047 4.94336 0.475586 5.16797 0.709961 5.40234L4.13281 8.74219Z" fill="white"/>
</svg>
