<svg width="6" height="9" viewBox="0 0 6 9" fill="none" xmlns="http://www.w3.org/2000/svg">
<path d="M1.26172 8.97656C1.50098 8.97656 1.69629 8.89844 1.86719 8.72754L5.28516 5.39258C5.51465 5.1582 5.62207 4.93848 5.62207 4.65039C5.62207 4.37207 5.51953 4.14258 5.28516 3.91309L1.86719 0.573242C1.69629 0.412109 1.49609 0.329102 1.26172 0.329102C0.773438 0.329102 0.373047 0.724609 0.373047 1.20312C0.373047 1.44727 0.475586 1.67188 0.666016 1.85742L3.56641 4.66016L0.666016 7.44824C0.470703 7.63379 0.373047 7.8584 0.373047 8.09766C0.373047 8.57617 0.773438 8.97656 1.26172 8.97656Z" fill="white"/>
</svg>
