<svg width="15" height="14" viewBox="0 0 15 14" fill="none" xmlns="http://www.w3.org/2000/svg">
<path fill-rule="evenodd" clip-rule="evenodd" d="M1 2H14C14.5523 2 15 1.55228 15 1C15 0.447715 14.5523 0 14 0H1C0.447715 0 0 0.447715 0 1C0 1.55228 0.447715 2 1 2ZM1 8H14C14.5523 8 15 7.55228 15 7C15 6.44772 14.5523 6 14 6H1C0.447715 6 0 6.44772 0 7C0 7.55228 0.447715 8 1 8ZM14 14H1C0.447715 14 0 13.5523 0 13C0 12.4477 0.447715 12 1 12H14C14.5523 12 15 12.4477 15 13C15 13.5523 14.5523 14 14 14Z" fill="white"/>
</svg>
