<svg width="64" height="64" viewBox="0 0 64 64" fill="none" xmlns="http://www.w3.org/2000/svg">
<circle cx="32" cy="32" r="32" fill="#F4BDB9"/>
<path d="M23.2344 45.8125H40.5469C43.1719 45.8125 44.6562 44.3281 44.6562 41.4062V26C44.6562 23.0938 43.1562 21.5938 40.2031 21.5938H37.6719C37.5938 18.6094 35.0469 16 31.7188 16C28.375 16 25.8281 18.6094 25.7656 21.5938H23.2344C20.2656 21.5938 18.7656 23.0781 18.7656 26V41.4062C18.7656 44.3281 20.2656 45.8125 23.2344 45.8125ZM31.7188 17.9375C33.9688 17.9375 35.5625 19.625 35.625 21.5938H27.7969C27.8594 19.625 29.4531 17.9375 31.7188 17.9375Z" fill="#FF9840"/>
<path d="M30.2686 39.1826C30.6992 39.1826 31.0342 39.0186 31.2666 38.6699L37.3027 29.4277C37.4668 29.1748 37.5352 28.9424 37.5352 28.7236C37.5352 28.1289 37.0908 27.7051 36.4893 27.7051C36.0791 27.7051 35.8193 27.8486 35.5664 28.2451L30.248 36.6465L27.541 33.29C27.3086 33.0098 27.0557 32.8799 26.7002 32.8799C26.0918 32.8799 25.6475 33.3174 25.6475 33.9121C25.6475 34.1719 25.7295 34.4043 25.9551 34.6709L29.2979 38.7178C29.5645 39.0391 29.8721 39.1826 30.2686 39.1826Z" fill="#F4B9B9"/>
</svg>
