<svg width="28" height="28" viewBox="0 0 28 28" fill="none" xmlns="http://www.w3.org/2000/svg">
<path d="M14 28C21.6751 28 28 21.6637 28 13.9927C28 6.3363 21.6604 0 14 0C6.32495 0 0 6.3363 0 13.9927C0 21.6637 6.33962 28 14 28ZM8.96646 20.0503C8.39413 20.0503 7.95388 19.5956 7.95388 19.0382C7.95388 18.7596 8.0566 18.5102 8.24738 18.3342L12.5618 14.0073L8.24738 9.68046C8.0566 9.50445 7.95388 9.25511 7.95388 8.97643C7.95388 8.4044 8.39413 7.97905 8.96646 7.97905C9.24528 7.97905 9.48008 8.08172 9.67086 8.27239L14 12.5846L18.3438 8.27239C18.5493 8.05238 18.7841 7.94971 19.0482 7.94971C19.6059 7.94971 20.0608 8.4044 20.0608 8.96176C20.0608 9.24044 19.9727 9.46045 19.7526 9.66579L15.4235 14.0073L19.7526 18.3049C19.9434 18.5102 20.0461 18.7449 20.0461 19.0382C20.0461 19.5956 19.6059 20.0503 19.0335 20.0503C18.74 20.0503 18.4906 19.9329 18.2998 19.7423L14 15.4301L9.68553 19.7423C9.50943 19.9329 9.24528 20.0503 8.96646 20.0503Z" fill="#FF5454"/>
</svg>
