<svg width="48" height="48" viewBox="0 0 48 48" fill="none" xmlns="http://www.w3.org/2000/svg">
<circle cx="24" cy="24" r="24" fill="#7795F8" fill-opacity="0.2"/>
<path fill-rule="evenodd" clip-rule="evenodd" d="M18.6346 30H33.274L33.2741 29.9973C34.7907 29.9313 36 28.6823 36 27.1513C36 25.8823 35.1692 24.8071 34.0214 24.4387C33.9731 23.7852 33.7492 23.1805 33.3967 22.6715L29.5093 26.5611C29.5931 26.7579 29.6394 26.9744 29.6394 27.2017C29.6394 28.1067 28.9049 28.8403 27.9988 28.8403C27.0927 28.8403 26.3582 28.1067 26.3582 27.2017C26.3582 27.0156 26.3892 26.8368 26.4464 26.6702L23.6707 24.2118C23.441 24.3341 23.1787 24.4034 22.9002 24.4034C22.6161 24.4034 22.3487 24.3312 22.1157 24.2042L16.1253 28.894C16.7753 29.539 17.6569 29.9514 18.6346 29.996L18.6346 30ZM15.4114 27.9154C15.1483 27.3982 15 26.8131 15 26.1933C15 24.0909 16.7064 22.3866 18.8113 22.3866L18.8379 22.3868C19.193 19.9066 21.3285 18 23.9099 18C26.1863 18 28.1161 19.4828 28.7837 21.5342C29.2807 21.2735 29.8466 21.1261 30.4471 21.1261C31.2325 21.1261 31.9589 21.3784 32.5495 21.8063L28.6576 25.7005C28.456 25.6121 28.2331 25.563 27.9988 25.563C27.7229 25.563 27.463 25.631 27.2348 25.7511L24.4551 23.2891C24.5107 23.1245 24.5409 22.9481 24.5409 22.7647C24.5409 21.8597 23.8063 21.1261 22.9002 21.1261C21.9941 21.1261 21.2596 21.8597 21.2596 22.7647C21.2596 22.9424 21.2879 23.1135 21.3403 23.2737L15.4114 27.9154Z" fill="#7795F8"/>
</svg>
