<svg width="15" height="17" viewBox="0 0 15 17" fill="none" xmlns="http://www.w3.org/2000/svg">
<path d="M11.8789 13.3623H12.2412C13.5947 13.3623 14.2783 12.6582 14.2783 11.2979V5.0498H10.4229C9.75293 5.0498 9.36328 4.65332 9.36328 3.99023V0.0800781H5.99316C4.63965 0.0800781 3.94922 0.777344 3.94922 2.14453V2.44531H4.79688C5.74023 2.44531 6.47168 2.70508 7.20996 3.44336L10.874 7.10742C11.6123 7.85254 11.8789 8.60449 11.8789 9.52051V13.3623ZM10.5664 4.21582H13.9707C13.9365 4.00391 13.793 3.81934 13.5605 3.58691L10.8193 0.797852C10.5938 0.56543 10.4023 0.415039 10.1904 0.387695L10.1973 3.84668C10.1973 4.10645 10.2998 4.21582 10.5664 4.21582ZM2.68457 16.5889H8.93945C10.293 16.5889 10.9766 15.8916 10.9766 14.5312V9.34961H6.25293C5.41895 9.34961 5.0293 8.95312 5.0293 8.12598V3.34082H2.68457C1.33789 3.34082 0.647461 4.03809 0.647461 5.40527V14.5312C0.647461 15.8984 1.33789 16.5889 2.68457 16.5889ZM6.27344 8.44727H10.6416C10.5801 8.1875 10.3955 7.94141 10.0947 7.64062L6.73828 4.22266C6.45117 3.92871 6.19141 3.74414 5.93164 3.67578V8.10547C5.93164 8.33105 6.04785 8.44727 6.27344 8.44727Z" fill="#A2A7AE"/>
</svg>
