<svg width="18" height="21" viewBox="0 0 18 21" fill="none" xmlns="http://www.w3.org/2000/svg">
<path d="M14.8359 16.75H15.0547C16.7969 16.75 17.7812 15.7656 17.7812 14.0156V6.67969H13.0625C12.375 6.67969 11.8359 6.14844 11.8359 5.46094V0.71875H7.82031C6.07812 0.71875 5.08594 1.71094 5.08594 3.46094V3.63281H6.10938C7.53906 3.63281 8.39062 3.89844 9.42969 4.92188L13.5156 8.94531C14.5703 9.98438 14.8359 10.8438 14.8359 12.2656V16.75ZM13.4219 5.49219H17.4844C17.4688 5.19531 17.2188 4.90625 16.875 4.5625L13.9375 1.60156C13.6172 1.28125 13.3359 1.03906 13.0312 1.02344V5.10156C13.0312 5.36719 13.1562 5.49219 13.4219 5.49219ZM3.60938 20.5234H10.8203C12.5625 20.5234 13.5547 19.5312 13.5547 17.7812V12.1953H7.625C6.70312 12.1953 6.20312 11.6875 6.20312 10.7734V4.82031H3.60938C1.875 4.82031 0.882812 5.8125 0.882812 7.5625V17.7812C0.882812 19.5312 1.86719 20.5234 3.60938 20.5234ZM7.94531 10.9219L13.2344 10.9141C13.2031 10.5234 12.8828 10.1484 12.4375 9.70312L8.66406 5.91406C8.25 5.5 7.875 5.17969 7.48438 5.14062V10.4531C7.48438 10.7656 7.63281 10.9219 7.94531 10.9219Z" fill="#1BB978"/>
</svg>
