<svg width="64" height="64" viewBox="0 0 64 64" fill="none" xmlns="http://www.w3.org/2000/svg">
<circle cx="32" cy="32" r="32" fill="#B9F4BC"/>
<path fill-rule="evenodd" clip-rule="evenodd" d="M38.9062 21.375H33.5938C33.3003 21.375 33.0625 21.1372 33.0625 20.8438V15.5312C33.0625 15.2378 33.3003 15 33.5938 15C36.8196 15.0038 39.4337 17.6179 39.4375 20.8438C39.4375 21.1372 39.1997 21.375 38.9062 21.375ZM38.3458 20.3125C38.0939 18.0941 36.3434 16.3436 34.125 16.0917V20.3125H38.3458Z" fill="#1BB978"/>
<path d="M41.8912 16.3544H45.8125V15H41.6447C41.4868 15 41.3353 15.0714 41.2237 15.1984L39.4375 17.23L40.2794 18.1875L41.8912 16.3544Z" fill="#1BB978"/>
<path d="M46.875 15H49V16.0625H46.875V15Z" fill="#1BB978"/>
<path d="M23.7206 18.1875L24.5625 17.23L22.7763 15.1984C22.6647 15.0714 22.5132 15 22.3553 15H18.1875V16.3544H22.1088L23.7206 18.1875Z" fill="#1BB978"/>
<path d="M15 15H17.125V16.0625H15V15Z" fill="#1BB978"/>
<path d="M42.625 18.1875H46.875V19.25H42.625V18.1875Z" fill="#1BB978"/>
<path d="M47.9375 18.1875H49V19.25H47.9375V18.1875Z" fill="#1BB978"/>
<path d="M15 18.1875H21.375V19.25H15V18.1875Z" fill="#1BB978"/>
<path d="M28.4838 34.8956H24.5625V36.25H28.7303C28.8882 36.25 29.0397 36.1786 29.1513 36.0516L30.9375 34.02L30.0956 33.0625L28.4838 34.8956Z" fill="#1BB978"/>
<path d="M21.375 34.125H23.5V35.1875H21.375V34.125Z" fill="#1BB978"/>
<path d="M21.375 30.9375H27.75V32H21.375V30.9375Z" fill="#1BB978"/>
<path fill-rule="evenodd" clip-rule="evenodd" d="M44.8454 23.5353C47.3859 24.7626 49.0029 27.363 49 30.2165C48.9925 33.6416 46.6722 36.6157 43.3868 37.4112V38.7545H43.9481C44.2581 38.7545 44.5094 39.0093 44.5094 39.3237V46.154C44.5094 47.7258 43.2529 49 41.7028 49C40.1528 49 38.8962 47.7258 38.8962 46.154V42.1696H34.4057V45.5848H36.0896C37.0185 45.5876 37.7708 46.3505 37.7736 47.2924V48.4308C37.7736 48.7452 37.5223 49 37.2123 49H27.1085C26.7985 49 26.5472 48.7452 26.5472 48.4308V47.2924C26.5499 46.3505 27.3023 45.5876 28.2311 45.5848H29.9151V42.1696H22.0566C20.5066 42.1696 19.25 40.8955 19.25 39.3237V24.5246C19.25 22.9528 20.5066 21.6786 22.0566 21.6786H25.1046C25.8588 18.9883 28.2796 17.1304 31.0377 17.125C31.3477 17.125 31.5991 17.3798 31.5991 17.6942V22.817H36.6509C36.9609 22.817 37.2123 23.0718 37.2123 23.3862C37.21 23.7509 37.1762 24.1146 37.1112 24.4733C39.2946 22.6731 42.3049 22.308 44.8454 23.5353ZM30.4764 23.3862V18.2975C27.8472 18.5942 25.8889 20.8973 25.9866 23.5781C26.0843 26.2588 28.2049 28.4091 30.8485 28.5082C33.4921 28.6072 35.7634 26.6215 36.0559 23.9554H31.0377C30.7277 23.9554 30.4764 23.7005 30.4764 23.3862ZM36.0896 46.7232C36.3996 46.7232 36.6509 46.9781 36.6509 47.2924V47.8616H27.6698V47.2924C27.6698 46.9781 27.9211 46.7232 28.2311 46.7232H36.0896ZM31.0377 42.1696V45.5848H33.283V42.1696H31.0377ZM39.4575 38.7545C39.1475 38.7545 38.8962 39.0093 38.8962 39.3237V41.0312H22.0566C21.1277 41.0284 20.3754 40.2656 20.3726 39.3237V38.7545H37.7736V37.6161H20.3726V24.5246C20.3754 23.5826 21.1277 22.8198 22.0566 22.817H24.8913C24.8744 23.0048 24.8632 23.1926 24.8632 23.3862C24.861 25.7307 26.152 27.8797 28.2075 28.9531C30.2631 30.0265 32.7381 29.844 34.619 28.4805C34.4794 29.0484 34.4077 29.6312 34.4057 30.2165C34.4131 33.6416 36.7335 36.6157 40.0189 37.4112V38.7545H39.4575ZM41.7028 47.8616C42.6329 47.8616 43.3868 47.0971 43.3868 46.154V39.8929H40.0189V46.154C40.0189 47.0971 40.7728 47.8616 41.7028 47.8616ZM41.1415 38.7545V37.5876C41.187 37.5904 41.2326 37.5936 41.2782 37.5967H41.2782L41.2783 37.5967C41.4182 37.6064 41.5589 37.6161 41.7028 37.6161C41.8467 37.6161 41.9875 37.6064 42.1274 37.5967L42.1274 37.5967H42.1275C42.1731 37.5936 42.2186 37.5904 42.2641 37.5876V38.7545H41.1415ZM35.5283 30.2165C35.5283 33.6745 38.2927 36.4777 41.7028 36.4777C45.112 36.4755 47.8752 33.6735 47.8773 30.2165C47.8773 26.7586 45.1129 23.9554 41.7028 23.9554C38.2927 23.9554 35.5283 26.7586 35.5283 30.2165Z" fill="#1BB978"/>
<path fill-rule="evenodd" clip-rule="evenodd" d="M36.25 30.9375C36.25 28.0035 38.6285 25.625 41.5625 25.625C44.495 25.6286 46.8714 28.005 46.875 30.9375C46.875 33.8715 44.4965 36.25 41.5625 36.25C38.6285 36.25 36.25 33.8715 36.25 30.9375ZM37.4306 30.9375C37.4306 33.2195 39.2805 35.0694 41.5625 35.0694C43.8434 35.0668 45.6918 33.2184 45.6944 30.9375C45.6944 28.6555 43.8445 26.8056 41.5625 26.8056C39.2805 26.8056 37.4306 28.6555 37.4306 30.9375Z" fill="#1BB978"/>
<path d="M38.375 30.9375H39.65C39.65 29.8813 40.5063 29.025 41.5625 29.025V27.75C39.803 27.7521 38.3771 29.178 38.375 30.9375Z" fill="#1BB978"/>
<path d="M41.5625 41.5625H42.625V42.625H41.5625V41.5625Z" fill="#1BB978"/>
<path d="M41.5625 43.6875H42.625V46.875H41.5625V43.6875Z" fill="#1BB978"/>
</svg>
