<svg width="64" height="64" viewBox="0 0 64 64" fill="none" xmlns="http://www.w3.org/2000/svg">
<circle cx="32" cy="32" r="32" fill="#F4B9B9"/>
<path d="M25.1875 48.1406H40.9219C43.8594 48.1406 45.3438 46.625 45.3438 43.6719V29.9531H34.7344C32.9531 29.9531 32.0938 29.0938 32.0938 27.3125V16.5938H25.1875C22.2656 16.5938 20.7656 18.0938 20.7656 21.0469V43.6719C20.7656 46.6406 22.25 48.1406 25.1875 48.1406ZM34.7969 28.125H45.1562C45.0781 27.5781 44.6875 27.0625 44.0781 26.4531L35.6094 17.8594C35.0156 17.25 34.4688 16.8594 33.9219 16.7656V27.25C33.9219 27.8438 34.2188 28.125 34.7969 28.125Z" fill="#FF5454"/>
<path fill-rule="evenodd" clip-rule="evenodd" d="M29.0139 16.6001V32.5981H45.3V28.9045C45.3 28.3864 45.099 27.8885 44.7392 27.5157L35.0893 17.5168C34.5239 16.931 33.7447 16.6001 32.9306 16.6001H29.0139Z" fill="#FF5454"/>
<path d="M33.4668 40.415C33.8623 40.415 34.2666 40.2129 34.2666 39.6504V39.0967C36.7275 38.8066 38.2656 37.3652 38.2656 35.2822C38.2656 33.4805 37.1758 32.3818 34.9609 31.9512L33.2998 31.6084C32.1836 31.3887 31.6738 30.9668 31.6738 30.3076C31.6738 29.5693 32.333 28.9805 33.3701 28.9805C34.249 28.9805 34.8818 29.2617 35.6289 29.9736C36.0684 30.3516 36.4287 30.5186 36.9033 30.5186C37.457 30.5186 37.9141 30.1143 37.9141 29.5342C37.9141 29.042 37.6504 28.5234 37.1582 28.0576C36.5078 27.4248 35.4619 27.0205 34.293 26.8711V26.2383C34.293 25.6758 33.8887 25.4736 33.4932 25.4736C33.0977 25.4736 32.6934 25.667 32.6934 26.2383V26.8535C30.3203 27.0732 28.791 28.4971 28.791 30.5273C28.791 32.3203 29.8633 33.4629 31.9902 33.9023L33.6426 34.2627C34.9082 34.5352 35.4092 34.9219 35.4092 35.5811C35.4092 36.4248 34.7412 36.9785 33.502 36.9785C32.6143 36.9785 31.7529 36.6094 30.9707 35.8975C30.4697 35.4756 30.1533 35.3525 29.7666 35.3525C29.1426 35.3525 28.6416 35.7393 28.6416 36.4248C28.6416 36.9521 28.9229 37.4619 29.415 37.9102C30.1445 38.5869 31.3223 39 32.6582 39.1143V39.6504C32.6582 40.2129 33.0713 40.415 33.4668 40.415Z" fill="#F4B9B9"/>
</svg>
