<svg width="48" height="48" viewBox="0 0 48 48" fill="none" xmlns="http://www.w3.org/2000/svg">
<circle cx="24" cy="24" r="24" fill="#7795F8" fill-opacity="0.2"/>
<path d="M27.6625 16.0032L25.5025 16C23.0725 16 21.5087 17.5456 21.5087 19.9382V21.7536H19.3375C19.1575 21.7536 19 21.8998 19 22.08V24.7104C19 24.8906 19.1575 25.0358 19.3375 25.0358H21.5087V31.6736C21.5087 31.8538 21.6662 32 21.8463 32H24.6813C24.8725 32 25.0188 31.8538 25.0188 31.6736V25.0358H27.5612C27.7413 25.0358 27.8988 24.8906 27.8988 24.7104V22.08C27.8988 21.9926 27.865 21.9104 27.7975 21.8486C27.7413 21.7878 27.6512 21.7536 27.5612 21.7536H25.0188V20.2144C25.0188 19.4742 25.1987 19.0986 26.2112 19.0986H27.6625C27.8425 19.0986 28 18.9526 28 18.7722V16.3296C28 16.1493 27.8538 16.0032 27.6625 16.0032Z" fill="#7795F8"/>
</svg>
