<svg width="64" height="64" viewBox="0 0 64 64" fill="none" xmlns="http://www.w3.org/2000/svg">
<circle cx="32" cy="32" r="32" fill="#7795F8"/>
<path fill-rule="evenodd" clip-rule="evenodd" d="M41.7087 20.2327H44.4023C45.2488 20.2327 45.9414 20.9253 45.9415 21.772L45.9407 40.2419C45.9407 41.0884 45.4367 42.2559 44.8199 42.8358L40.5202 46.883C39.9042 47.4629 38.7067 47.9377 37.8605 47.9377H24.778C23.9311 47.9377 23.2388 47.245 23.2388 46.3985V43.705H20.5453C19.6987 43.705 19.0061 43.0123 19.0061 42.1658V17.5392C19.0061 16.6926 19.6987 16 20.5452 16H40.1699C41.0161 16 41.7088 16.6926 41.7087 17.5392V20.2327ZM23.2387 42.5506V21.7719C23.2387 20.9253 23.931 20.2327 24.7779 20.2327H40.5547V17.5392C40.5547 17.3307 40.3781 17.1544 40.17 17.1544H20.5452C20.3367 17.1544 20.1605 17.3307 20.1605 17.5392V42.1658C20.1605 42.3744 20.3367 42.5506 20.5452 42.5506H23.2387ZM44.0287 41.9953L39.729 46.0422C39.6409 46.125 39.5262 46.2061 39.3996 46.2834V42.743C39.3996 42.4786 39.5062 42.2407 39.682 42.0638C39.8594 41.8879 40.0972 41.781 40.3616 41.781H44.2114C44.1517 41.8621 44.0906 41.9368 44.0287 41.9953ZM44.7339 40.6265C44.7654 40.4884 44.7863 40.3561 44.7863 40.2418L44.7869 21.7719C44.7869 21.5633 44.6107 21.3871 44.4022 21.3871H24.7779C24.569 21.3871 24.3931 21.5633 24.3931 21.7719V46.3984C24.3931 46.607 24.5689 46.7832 24.7779 46.7832V46.7831H37.8604C37.9754 46.7831 38.1078 46.7644 38.2452 46.7366V42.7429C38.2475 41.575 39.1937 40.6288 40.3615 40.6265H44.7339Z" fill="#1F53FF"/>
<path d="M40.1699 25.6198H29.011C28.692 25.6198 28.4338 25.8779 28.4338 26.1969C28.4338 26.5159 28.6921 26.7741 29.011 26.7741H40.1699C40.4885 26.7741 40.7471 26.5159 40.7471 26.1969C40.7471 25.8779 40.4885 25.6198 40.1699 25.6198Z" fill="#1F53FF"/>
<path d="M40.1699 33.3156H29.011C28.692 33.3156 28.4338 33.5737 28.4338 33.8927C28.4338 34.2117 28.6921 34.4699 29.011 34.4699H40.1699C40.4885 34.4699 40.7471 34.2117 40.7471 33.8927C40.7471 33.5737 40.4885 33.3156 40.1699 33.3156Z" fill="#1F53FF"/>
<path d="M35.1676 37.1635H29.011C28.692 37.1635 28.4338 37.4216 28.4338 37.7406C28.4338 38.0596 28.692 38.3178 29.011 38.3178H35.1676C35.4863 38.3178 35.7444 38.0596 35.7444 37.7406C35.7444 37.4216 35.4863 37.1635 35.1676 37.1635Z" fill="#1F53FF"/>
<path d="M40.1699 29.4677H29.011C28.692 29.4677 28.4338 29.7258 28.4338 30.0448C28.4338 30.3638 28.6921 30.622 29.011 30.622H40.1699C40.4885 30.622 40.7471 30.3638 40.7471 30.0448C40.7471 29.7258 40.4885 29.4677 40.1699 29.4677Z" fill="#1F53FF"/>
</svg>
