<svg width="17" height="17" viewBox="0 0 17 17" fill="none" xmlns="http://www.w3.org/2000/svg">
<path d="M8.25 16.5938C12.6016 16.5938 16.1719 13.0234 16.1719 8.67188C16.1719 4.3125 12.6016 0.75 8.24219 0.75C3.89062 0.75 0.320312 4.3125 0.320312 8.67188C0.320312 13.0234 3.89062 16.5938 8.25 16.5938ZM8.26562 6.51562C7.64844 6.51562 7.125 5.99219 7.125 5.38281C7.125 4.73438 7.64844 4.22656 8.26562 4.22656C8.89062 4.22656 9.39844 4.73438 9.39844 5.38281C9.39844 5.99219 8.89062 6.51562 8.26562 6.51562ZM6.90625 12.5547C6.49219 12.5547 6.17188 12.2578 6.17188 11.8281C6.17188 11.4297 6.49219 11.1172 6.90625 11.1172H7.69531V8.86719H7.04688C6.63281 8.86719 6.3125 8.57031 6.3125 8.14844C6.3125 7.75 6.63281 7.42969 7.04688 7.42969H8.5C9.03906 7.42969 9.32031 7.79688 9.32031 8.36719V11.1172H9.875C10.2891 11.1172 10.6172 11.4297 10.6172 11.8281C10.6172 12.2578 10.2891 12.5547 9.875 12.5547H6.90625Z" fill="#2F2F2E"/>
</svg>
