<svg width="31" height="31" viewBox="0 0 31 31" fill="none" xmlns="http://www.w3.org/2000/svg">
<path d="M15.5469 30.2656C23.7188 30.2656 30.4531 23.5156 30.4531 15.3438C30.4531 7.1875 23.7031 0.4375 15.5469 0.4375C7.375 0.4375 0.640625 7.1875 0.640625 15.3438C0.640625 23.5156 7.39062 30.2656 15.5469 30.2656ZM15.4531 9.90625C14.4844 9.90625 13.7031 9.125 13.7031 8.15625C13.7031 7.1875 14.4844 6.40625 15.4531 6.40625C16.4219 6.40625 17.1875 7.1875 17.1875 8.15625C17.1875 9.125 16.4219 9.90625 15.4531 9.90625ZM12.9219 23.4375C12.4062 23.4375 12 23.0469 12 22.5156C12 22.0156 12.4062 21.625 12.9219 21.625H14.9375V14.3125H13.1406C12.625 14.3125 12.2031 13.9219 12.2031 13.4062C12.2031 12.9062 12.625 12.5 13.1406 12.5H15.9688C16.6094 12.5 16.9531 12.9688 16.9531 13.6406V21.625H18.9688C19.4844 21.625 19.9062 22.0156 19.9062 22.5156C19.9062 23.0469 19.4844 23.4375 18.9688 23.4375H12.9219Z" fill="#1BB978"/>
</svg>
