<svg width="98" height="24" viewBox="0 0 98 24" fill="none" xmlns="http://www.w3.org/2000/svg">
<path d="M31.66 19.18C30.5 19.18 29.4533 18.94 28.52 18.46C27.5867 17.98 26.8533 17.3133 26.32 16.46C25.8 15.6067 25.54 14.64 25.54 13.56C25.54 12.4933 25.8 11.5333 26.32 10.68C26.8533 9.82667 27.58 9.16667 28.5 8.7C29.4333 8.22 30.4867 7.98 31.66 7.98C32.8333 7.98 33.8867 8.22 34.82 8.7C35.7533 9.16667 36.48 9.82667 37 10.68C37.52 11.52 37.78 12.48 37.78 13.56C37.78 14.64 37.52 15.6067 37 16.46C36.48 17.3133 35.7533 17.98 34.82 18.46C33.8867 18.94 32.8333 19.18 31.66 19.18ZM31.66 16.16C32.3267 16.16 32.8733 15.9333 33.3 15.48C33.7267 15.0133 33.94 14.3733 33.94 13.56C33.94 12.76 33.7267 12.1333 33.3 11.68C32.8733 11.2267 32.3267 11 31.66 11C30.9933 11 30.4467 11.2267 30.02 11.68C29.5933 12.1333 29.38 12.76 29.38 13.56C29.38 14.3733 29.5933 15.0133 30.02 15.48C30.4467 15.9333 30.9933 16.16 31.66 16.16ZM43.1603 9.46C43.547 8.96667 44.047 8.6 44.6603 8.36C45.287 8.10667 46.0003 7.98 46.8003 7.98V11.4C46.4536 11.36 46.167 11.34 45.9403 11.34C45.127 11.34 44.487 11.56 44.0203 12C43.567 12.44 43.3403 13.1133 43.3403 14.02V19H39.5403V8.16H43.1603V9.46ZM52.328 19.18C51.4213 19.18 50.528 19.08 49.648 18.88C48.768 18.6667 48.0613 18.3933 47.528 18.06L48.668 15.46C49.1613 15.7667 49.748 16.0133 50.428 16.2C51.108 16.3733 51.7813 16.46 52.448 16.46C53.0613 16.46 53.4946 16.4 53.748 16.28C54.0146 16.1467 54.148 15.96 54.148 15.72C54.148 15.48 53.988 15.3133 53.668 15.22C53.3613 15.1133 52.868 15.0133 52.188 14.92C51.3213 14.8133 50.5813 14.6733 49.968 14.5C49.368 14.3267 48.848 14.0067 48.408 13.54C47.968 13.0733 47.748 12.42 47.748 11.58C47.748 10.8867 47.9546 10.2733 48.368 9.74C48.7813 9.19333 49.3813 8.76667 50.168 8.46C50.968 8.14 51.9213 7.98 53.028 7.98C53.8146 7.98 54.5946 8.06 55.368 8.22C56.1413 8.38 56.788 8.60667 57.308 8.9L56.168 11.48C55.208 10.9467 54.168 10.68 53.048 10.68C52.448 10.68 52.008 10.7533 51.728 10.9C51.448 11.0333 51.308 11.2133 51.308 11.44C51.308 11.6933 51.4613 11.8733 51.768 11.98C52.0746 12.0733 52.5813 12.1733 53.288 12.28C54.1813 12.4133 54.9213 12.5667 55.508 12.74C56.0946 12.9133 56.6013 13.2333 57.028 13.7C57.468 14.1533 57.688 14.7933 57.688 15.62C57.688 16.3 57.4813 16.9133 57.068 17.46C56.6546 17.9933 56.0413 18.4133 55.228 18.72C54.428 19.0267 53.4613 19.18 52.328 19.18ZM63.9455 7.98C65.7455 7.98 67.1188 8.39333 68.0655 9.22C69.0121 10.0333 69.4855 11.2867 69.4855 12.98V19H65.9455V17.6C65.3988 18.6533 64.3321 19.18 62.7455 19.18C61.9055 19.18 61.1788 19.0333 60.5655 18.74C59.9521 18.4467 59.4855 18.0533 59.1655 17.56C58.8588 17.0533 58.7055 16.48 58.7055 15.84C58.7055 14.8133 59.0988 14.02 59.8855 13.46C60.6721 12.8867 61.8855 12.6 63.5255 12.6H65.6855C65.6188 11.4533 64.8521 10.88 63.3855 10.88C62.8655 10.88 62.3388 10.9667 61.8055 11.14C61.2721 11.3 60.8188 11.5267 60.4455 11.82L59.1655 9.24C59.7655 8.84 60.4921 8.53333 61.3455 8.32C62.2121 8.09333 63.0788 7.98 63.9455 7.98ZM63.8055 16.78C64.2455 16.78 64.6321 16.6733 64.9655 16.46C65.2988 16.2467 65.5388 15.9333 65.6855 15.52V14.58H64.0455C62.9388 14.58 62.3855 14.9467 62.3855 15.68C62.3855 16.0133 62.5121 16.28 62.7655 16.48C63.0188 16.68 63.3655 16.78 63.8055 16.78ZM83.7003 8.16V17.02C83.7003 19.0333 83.1536 20.54 82.0603 21.54C80.967 22.5533 79.3936 23.06 77.3403 23.06C76.2736 23.06 75.2736 22.94 74.3403 22.7C73.407 22.46 72.6136 22.1067 71.9603 21.64L73.3403 18.98C73.7803 19.34 74.3336 19.62 75.0003 19.82C75.6803 20.0333 76.347 20.14 77.0003 20.14C78.0003 20.14 78.7336 19.92 79.2003 19.48C79.667 19.04 79.9003 18.3867 79.9003 17.52V17.16C79.167 18.0133 78.0936 18.44 76.6803 18.44C75.7203 18.44 74.8336 18.2267 74.0203 17.8C73.207 17.36 72.5603 16.7467 72.0803 15.96C71.6003 15.16 71.3603 14.24 71.3603 13.2C71.3603 12.1733 71.6003 11.2667 72.0803 10.48C72.5603 9.68 73.207 9.06667 74.0203 8.64C74.8336 8.2 75.7203 7.98 76.6803 7.98C78.227 7.98 79.3603 8.48 80.0803 9.48V8.16H83.7003ZM77.5803 15.42C78.2603 15.42 78.8203 15.2133 79.2603 14.8C79.7136 14.3867 79.9403 13.8533 79.9403 13.2C79.9403 12.5467 79.7203 12.02 79.2803 11.62C78.8403 11.2067 78.2736 11 77.5803 11C76.887 11 76.3136 11.2067 75.8603 11.62C75.4203 12.02 75.2003 12.5467 75.2003 13.2C75.2003 13.8533 75.427 14.3867 75.8803 14.8C76.3336 15.2133 76.9003 15.42 77.5803 15.42ZM97.2219 13.6C97.2219 13.6267 97.2019 13.94 97.1619 14.54H89.2819C89.4419 15.1 89.7485 15.5333 90.2019 15.84C90.6685 16.1333 91.2485 16.28 91.9419 16.28C92.4619 16.28 92.9085 16.2067 93.2819 16.06C93.6685 15.9133 94.0552 15.6733 94.4419 15.34L96.4419 17.42C95.3885 18.5933 93.8485 19.18 91.8219 19.18C90.5552 19.18 89.4419 18.94 88.4819 18.46C87.5219 17.98 86.7752 17.3133 86.2419 16.46C85.7219 15.6067 85.4619 14.64 85.4619 13.56C85.4619 12.4933 85.7152 11.54 86.2219 10.7C86.7419 9.84667 87.4552 9.18 88.3619 8.7C89.2685 8.22 90.2885 7.98 91.4219 7.98C92.5019 7.98 93.4819 8.20667 94.3619 8.66C95.2419 9.1 95.9352 9.74667 96.4419 10.6C96.9619 11.44 97.2219 12.44 97.2219 13.6ZM91.4419 10.68C90.8552 10.68 90.3619 10.8467 89.9619 11.18C89.5752 11.5133 89.3285 11.9667 89.2219 12.54H93.6619C93.5552 11.9667 93.3019 11.5133 92.9019 11.18C92.5152 10.8467 92.0285 10.68 91.4419 10.68Z" fill="white"/>
<path fill-rule="evenodd" clip-rule="evenodd" d="M25.7348 4.128L30 0H4.26518L0 4.128H25.7348ZM15.2875 5.904L13.9457 7.536H21.6134L17.5879 11.472H2.30032L8.00319 5.904H15.2875ZM15.9585 13.056L4.79233 24L9.82428 13.056H15.9585Z" fill="white"/>
</svg>
