<svg width="95" height="28" viewBox="0 0 95 28" fill="none" xmlns="http://www.w3.org/2000/svg">
<path fill-rule="evenodd" clip-rule="evenodd" d="M30 0L25.7348 4.128H0L4.26518 0H30ZM13.9457 7.536L15.2875 5.904H8.00319L2.30032 11.472H17.5879L21.6134 7.536H13.9457ZM4.79233 24L15.9585 13.056H9.82428L4.79233 24ZM28.14 11.98C29.2867 11.98 30.2867 12.1833 31.14 12.59C31.9933 12.9967 32.6533 13.57 33.12 14.31C33.5867 15.05 33.82 15.9133 33.82 16.9C33.82 18.0867 33.5333 19.1567 32.96 20.11C32.3867 21.0633 31.5967 21.8133 30.59 22.36C29.5833 22.9067 28.44 23.18 27.16 23.18C26.0133 23.18 25.0133 22.9767 24.16 22.57C23.3067 22.1633 22.6467 21.5867 22.18 20.84C21.7133 20.0933 21.48 19.2267 21.48 18.24C21.48 17.0533 21.7667 15.9867 22.34 15.04C22.9133 14.0933 23.7067 13.3467 24.72 12.8C25.7333 12.2533 26.8733 11.98 28.14 11.98ZM74.52 11.98C75.3467 11.98 76.0633 12.1333 76.67 12.44C77.2767 12.7467 77.72 13.2267 78 13.88L78.34 12.16H81.96L80.2 21C79.7867 23.0933 78.98 24.6267 77.78 25.6C76.58 26.5733 75 27.06 73.04 27.06C70.8533 27.06 69.0933 26.5933 67.76 25.66L69.46 23.02C69.9 23.3667 70.4467 23.64 71.1 23.84C71.7533 24.04 72.4333 24.14 73.14 24.14C74.0867 24.14 74.8033 23.9367 75.29 23.53C75.728 23.164 76.0337 22.6333 76.2071 21.9379L76.34 21.34C75.5267 22.0733 74.52 22.44 73.32 22.44C72.4533 22.44 71.66 22.2533 70.94 21.88C70.22 21.5067 69.6467 20.97 69.22 20.27C68.7933 19.57 68.58 18.7533 68.58 17.82C68.58 16.7533 68.84 15.7733 69.36 14.88C69.88 13.9867 70.5933 13.28 71.5 12.76C72.4067 12.24 73.4133 11.98 74.52 11.98ZM52.12 12.21C51.4 12.0567 50.6533 11.98 49.88 11.98C48.1733 11.98 46.7833 12.3233 45.71 13.01C44.6367 13.6967 44.1 14.6667 44.1 15.92C44.1 16.64 44.2933 17.2 44.68 17.6C45.0667 18 45.5167 18.2833 46.03 18.45C46.5433 18.6167 47.2 18.7733 48 18.92C48.6 19.0133 49.0367 19.11 49.31 19.21C49.5833 19.31 49.72 19.4667 49.72 19.68C49.72 20.2 49.14 20.46 47.98 20.46C47.3267 20.46 46.66 20.37 45.98 20.19C45.3 20.01 44.7133 19.7667 44.22 19.46L42.84 22.12C43.32 22.4267 43.99 22.68 44.85 22.88C45.71 23.08 46.6067 23.18 47.54 23.18C49.22 23.18 50.6 22.84 51.68 22.16C52.76 21.48 53.3 20.5133 53.3 19.26C53.3 18.5667 53.11 18.02 52.73 17.62C52.35 17.22 51.9033 16.9333 51.39 16.76C50.8767 16.5867 50.2333 16.4333 49.46 16.3C48.8333 16.18 48.3833 16.07 48.11 15.97C47.8367 15.87 47.7 15.7133 47.7 15.5C47.7 15.26 47.8433 15.0633 48.13 14.91C48.4167 14.7567 48.8533 14.68 49.44 14.68C50.68 14.68 51.7533 14.9533 52.66 15.5L54 12.84C53.4667 12.5733 52.84 12.3633 52.12 12.21ZM60.48 11.98C62.0533 11.98 63.16 12.4733 63.8 13.46L64.06 12.16H67.86L65.7 23H62.1L62.32 21.98C61.4533 22.78 60.4067 23.18 59.18 23.18C58.38 23.18 57.63 22.9833 56.93 22.59C56.23 22.1967 55.6667 21.6267 55.24 20.88C54.8133 20.1333 54.6 19.2533 54.6 18.24C54.6 17.0667 54.8633 16.0033 55.39 15.05C55.9167 14.0967 56.63 13.3467 57.53 12.8C58.43 12.2533 59.4133 11.98 60.48 11.98ZM91.99 12.57C91.1833 12.1767 90.24 11.98 89.16 11.98C87.88 11.98 86.7433 12.25 85.75 12.79C84.7567 13.33 83.9833 14.0767 83.43 15.03C82.8767 15.9833 82.6 17.0533 82.6 18.24C82.6 19.24 82.8367 20.11 83.31 20.85C83.7833 21.59 84.4567 22.1633 85.33 22.57C86.2033 22.9767 87.2133 23.18 88.36 23.18C90.1733 23.18 91.7133 22.7133 92.98 21.78L91.4 19.4C91.04 19.6933 90.6333 19.9133 90.18 20.06C89.7267 20.2067 89.26 20.28 88.78 20.28C87.2733 20.28 86.4533 19.6933 86.32 18.52H94.28C94.4267 17.8533 94.5 17.26 94.5 16.74C94.5 15.7933 94.2833 14.96 93.85 14.24C93.4167 13.52 92.7967 12.9633 91.99 12.57ZM43.88 11.98L43.22 15.4C42.8867 15.36 42.6 15.34 42.36 15.34C41.5067 15.34 40.8233 15.5433 40.31 15.95C39.7967 16.3567 39.4533 17 39.28 17.88L38.24 23H34.44L36.6 12.16H40.2L39.96 13.36C40.8667 12.44 42.1733 11.98 43.88 11.98ZM26.06 15.86C26.54 15.3 27.16 15.02 27.92 15.02C28.56 15.02 29.06 15.2067 29.42 15.58C29.78 15.9533 29.96 16.46 29.96 17.1C29.96 17.9933 29.72 18.72 29.24 19.28C28.76 19.84 28.14 20.12 27.38 20.12C26.74 20.12 26.24 19.9367 25.88 19.57C25.52 19.2033 25.34 18.7 25.34 18.06C25.34 17.1533 25.58 16.42 26.06 15.86ZM61.02 15.02C60.26 15.02 59.64 15.3 59.16 15.86C58.68 16.42 58.44 17.1533 58.44 18.06C58.44 18.7 58.6233 19.2033 58.99 19.57C59.3567 19.9367 59.86 20.12 60.5 20.12C61.26 20.12 61.88 19.84 62.36 19.28C62.84 18.72 63.08 17.9933 63.08 17.1C63.08 16.46 62.8967 15.9533 62.53 15.58C62.1633 15.2067 61.66 15.02 61.02 15.02ZM73.12 15.75C73.6 15.2633 74.22 15.02 74.98 15.02C75.6067 15.02 76.1 15.1833 76.46 15.51C76.82 15.8367 77 16.2667 77 16.8C77 17.5733 76.7633 18.2 76.29 18.68C75.8167 19.16 75.2 19.4 74.44 19.4C73.8 19.4 73.3 19.24 72.94 18.92C72.58 18.6 72.4 18.1733 72.4 17.64C72.4 16.8667 72.64 16.2367 73.12 15.75ZM88.98 14.68C88.3667 14.68 87.8533 14.8433 87.44 15.17C87.0783 15.4558 86.8034 15.8361 86.6153 16.3108L86.54 16.52H91C91.0133 15.9467 90.8333 15.4967 90.46 15.17C90.0867 14.8433 89.5933 14.68 88.98 14.68Z" fill="url(#paint0_linear)"/>
<defs>
<linearGradient id="paint0_linear" x1="-53.6309" y1="28.8909" x2="97.8898" y2="28.8909" gradientUnits="userSpaceOnUse">
<stop stop-color="#1BB978"/>
<stop offset="1" stop-color="#7795F8"/>
</linearGradient>
</defs>
</svg>
