<svg width="48" height="48" viewBox="0 0 48 48" fill="none" xmlns="http://www.w3.org/2000/svg">
<circle cx="24" cy="24" r="24" fill="#7795F8" fill-opacity="0.2"/>
<path d="M18.7787 21.448C18.7973 21.2624 18.7271 21.079 18.5896 20.9541L17.1891 19.254V19H21.5378L24.8992 26.4286L27.8543 19H32V19.254L30.8025 20.4109C30.6993 20.4902 30.6481 20.6206 30.6695 20.7496V29.2504C30.6481 29.3794 30.6993 29.5098 30.8025 29.5891L31.972 30.746V31H26.0896V30.746L27.3011 29.5608C27.4202 29.4409 27.4202 29.4056 27.4202 29.2222V22.351L24.0518 30.9718H23.5966L19.6751 22.351V28.1287C19.6424 28.3717 19.7224 28.6162 19.8922 28.7919L21.4678 30.7178V30.9718H17V30.7178L18.5756 28.7919C18.7441 28.6159 18.8195 28.3697 18.7787 28.1287V21.448Z" fill="#7795F8"/>
</svg>
