<svg width="48" height="48" viewBox="0 0 48 48" fill="none" xmlns="http://www.w3.org/2000/svg">
<circle cx="24" cy="24" r="24" fill="#7795F8" fill-opacity="0.2"/>
<path fill-rule="evenodd" clip-rule="evenodd" d="M32.5628 20.6505C32.854 20.2415 33 19.8125 33 19.3637C33 18.9887 32.8584 18.6678 32.5759 18.4005C32.2931 18.1335 31.9582 18 31.5713 18L18.4285 18L18.2615 18.0069C17.8835 18.0393 17.5866 18.1847 17.3705 18.4431C17.1234 18.7385 17 19.1079 17 19.551C17 19.9089 17.1637 20.2967 17.491 20.7145C17.8183 21.1321 18.1666 21.4601 18.5357 21.6987L22.7054 24.4687L23.4649 24.986L23.7039 25.1383C23.8011 25.1976 23.9103 25.2613 24.0314 25.3296C24.2129 25.4317 24.3841 25.5086 24.5448 25.5597C24.7056 25.6107 24.8544 25.6364 24.9912 25.6364L25.1499 25.6278C25.2464 25.6165 25.3483 25.5937 25.4554 25.5597C25.6161 25.5086 25.7872 25.4319 25.9689 25.3296C26.1504 25.2272 26.305 25.1349 26.4332 25.0526L26.5354 24.986L27.1614 24.5595L31.4735 21.6987C31.908 21.409 32.271 21.0595 32.5628 20.6505ZM17 28.4132L20.9481 24.6214C20.7111 24.4625 20.4536 24.2909 20.1756 24.1065L17.8912 22.6051C17.556 22.3904 17.2588 22.1446 17 21.8678L17 28.4132ZM32.4805 29.6631C32.2543 29.8548 31.9938 29.9654 31.6983 29.9931L31.5477 30L18.4525 30C18.1453 30 17.8732 29.9168 17.6355 29.7522L17.5195 29.6631L22.037 25.3388L22.7239 25.8161C22.8961 25.9339 23.0454 26.0328 23.1718 26.1128C23.3822 26.2464 23.6624 26.3825 24.0125 26.5216C24.2925 26.6329 24.5572 26.6996 24.8068 26.7218L25.0089 26.7301C25.3114 26.7301 25.6375 26.6607 25.9875 26.5216C26.3374 26.3825 26.6176 26.2464 26.8282 26.1128L27.1116 25.9276C27.2162 25.8574 27.331 25.7789 27.456 25.6919L27.9638 25.34L32.4805 29.6631ZM29.0519 24.6229L33 28.4132V21.8678L32.8025 22.0664C32.5972 22.2603 32.3689 22.4398 32.1174 22.605C31.4495 23.039 30.8373 23.4395 30.2808 23.8064L29.0519 24.6229Z" fill="#7795F8"/>
</svg>
