<svg width="14" height="14" viewBox="0 0 14 14" fill="none" xmlns="http://www.w3.org/2000/svg">
<path d="M6.78613 13.9688C10.4092 13.9688 13.4102 10.9678 13.4102 7.34473C13.4102 3.72168 10.4023 0.713867 6.7793 0.713867C3.15625 0.713867 0.155273 3.72168 0.155273 7.34473C0.155273 10.9678 3.16309 13.9688 6.78613 13.9688ZM6.7793 7.66602C6.66992 7.66602 6.54688 7.63184 6.41699 7.50195L3.60059 4.68555C3.68262 4.61719 3.87402 4.55566 4.14746 4.55566H9.41113C9.68457 4.55566 9.86914 4.61719 9.95801 4.68555L7.13477 7.50195C7.01172 7.625 6.89551 7.66602 6.7793 7.66602ZM5.50781 7.33789L3.28613 9.56641C3.23828 9.49121 3.21777 9.32715 3.21777 9.10156V5.56738C3.21777 5.33496 3.23828 5.17773 3.2793 5.10938L5.50781 7.33789ZM8.03027 7.33789L10.2588 5.10938C10.2998 5.17773 10.3203 5.33496 10.3203 5.56738V9.10156C10.3203 9.32715 10.2998 9.49121 10.252 9.56641L8.03027 7.33789ZM6.77246 8.18555C7.00488 8.18555 7.18945 8.10352 7.43555 7.87793L7.64062 7.68652L9.9375 9.99023C9.85547 10.0586 9.67773 10.1064 9.4043 10.1064H4.14746C3.87402 10.1064 3.68945 10.0586 3.60742 9.99023L5.91113 7.68652L6.10938 7.87793C6.35547 8.10352 6.54004 8.18555 6.77246 8.18555Z" fill="#A2A7AE"/>
</svg>
