<svg width="64" height="64" viewBox="0 0 64 64" fill="none" xmlns="http://www.w3.org/2000/svg">
<circle cx="32" cy="32" r="32" fill="#F4B9B9"/>
<path fill-rule="evenodd" clip-rule="evenodd" d="M47.1335 37.0086C48.4773 32.9316 48.1246 28.4853 46.1549 24.6711C46.8343 23.5792 47.1778 22.5608 47.1778 21.6284C47.1794 19.5891 46.0126 17.7292 44.1758 16.8432C42.339 15.9573 40.157 16.202 38.5621 17.4728C33.8091 15.3306 28.3094 15.6447 23.8311 18.3139C22.1871 17.5628 20.2739 17.6997 18.7537 18.6773C17.2334 19.6549 16.3149 21.3387 16.3161 23.1462C16.3161 24.0266 16.6224 24.9838 17.2286 26.007C16.455 27.9101 16.0591 29.9456 16.0632 31.9999C15.8848 40.5581 23.434 48.1176 31.9999 47.9367C38.7246 48.0158 45.0827 43.4269 47.1335 37.0086ZM46.4189 31.9999C46.4195 33.1257 46.2886 34.2477 46.0289 35.3431L45.1847 34.4989C45.0729 34.3871 44.9289 34.313 44.7729 34.2869L42.0371 33.831L41.4798 33.0885C41.3084 32.6211 41.0721 32.1801 40.7778 31.7786L40.4016 28.3948L40.7207 28.2351C41.1137 28.5813 41.3769 28.787 41.3996 28.8043C41.6737 29.0174 42.0574 29.0174 42.3314 28.8043C43.1816 28.1217 43.9757 27.3721 44.7063 26.5627C44.8584 26.3938 45.0035 26.2261 45.1417 26.0599C45.9834 27.9271 46.4187 29.9518 46.4189 31.9999ZM44.3562 38.337L44.589 39.0355C44.9561 38.38 45.2711 37.6966 45.5311 36.9918L44.2834 35.744L41.7782 35.3266C41.7113 35.9526 41.5001 36.612 41.1446 37.3049L43.7851 37.8329C44.0521 37.8863 44.2701 38.0787 44.3562 38.337ZM39.0247 26.5629C39.2018 26.7594 39.3779 26.9466 39.5503 27.1233L39.2495 27.2738C38.9651 27.4159 38.7994 27.7203 38.8346 28.0364L39.0834 30.2747C37.8323 29.5722 36.3499 29.4064 34.9745 29.8154C33.599 30.2243 32.448 31.173 31.7839 32.445L30.7636 32.2874L28.1291 30.531L27.8086 28.9286L29.4357 28.2778L31.1546 29.1372C31.4696 29.2947 31.8516 29.2148 32.077 28.9443L34.505 26.0306L37.4938 24.5362C37.9384 25.259 38.4511 25.9376 39.0247 26.5629ZM40.2832 34.9076C40.2809 32.813 38.5834 31.1156 36.4888 31.1132H36.4886C34.394 31.1156 32.6967 32.8131 32.6943 34.9076C32.6943 36.8419 35.115 39.3225 36.4888 40.5026C37.8622 39.3228 40.2832 36.842 40.2832 34.9076ZM41.8655 17.8339C43.9602 17.8363 45.6576 19.5338 45.66 21.6284C45.66 23.5628 43.2391 26.0435 41.8655 27.2233C40.303 25.8545 38.1086 23.5709 38.0711 21.6284C38.0734 19.5338 39.7709 17.8363 41.8655 17.8339ZM37.4666 18.6535C35.7324 17.9408 33.8749 17.5764 31.9999 17.581C29.6445 17.5786 27.3245 18.1548 25.2439 19.259C26.3261 20.2619 26.941 21.6707 26.9406 23.1462C26.9406 24.5983 26.1091 26.2585 24.4692 28.081C24.2311 28.3453 23.9936 28.5932 23.7659 28.8209L24.5762 32.0607L26.3297 33.3757L31.2878 35.8547C31.2154 35.5442 31.178 35.2266 31.1764 34.9077C31.1767 34.5702 31.209 34.2335 31.2731 33.9022L30.3663 33.7621C30.2572 33.7453 30.153 33.7048 30.0612 33.6436L27.0256 31.6199C26.8581 31.5082 26.7419 31.3346 26.7024 31.1373L26.1965 28.6076C26.1246 28.2488 26.319 27.8898 26.6588 27.7539L29.1884 26.742C29.3897 26.6615 29.6157 26.6709 29.8096 26.7679L31.2958 27.511L33.4406 24.9371C33.5076 24.8566 33.5906 24.7909 33.6843 24.7441L36.8368 23.1678C36.6558 22.6745 36.5599 22.1539 36.5533 21.6284C36.5521 20.5676 36.8703 19.5309 37.4666 18.6535ZM21.6284 19.3517C23.723 19.3541 25.4205 21.0516 25.4228 23.1462C25.4228 24.738 23.7837 26.6992 22.4379 28.0016C22.4087 28.0258 22.3814 28.0521 22.3562 28.0803C22.0964 28.3289 21.849 28.5519 21.6289 28.7411C20.2546 27.5611 17.8339 25.0805 17.8339 23.1462C17.8363 21.0516 19.5337 19.3541 21.6284 19.3517ZM18.2846 34.9835L17.7881 34.4382C18.4849 38.4645 20.8536 42.0076 24.3079 44.1903L24.6737 41.9397C24.6892 41.8447 24.7226 41.7536 24.7721 41.671L25.9851 39.6495L25.0554 38.7198C24.7624 38.6661 24.2448 38.5652 23.721 38.4342C22.6542 38.1675 21.693 37.8621 21.6315 37.0828C21.5286 36.8471 21.022 36.2253 20.4781 35.663L18.6617 35.2089C18.5165 35.1726 18.3853 35.0942 18.2846 34.9835ZM25.7178 44.977L26.1485 42.3272L27.5914 39.9225C27.7706 39.6239 27.7237 39.2417 27.4775 38.9954L25.9598 37.4776C25.848 37.3658 25.704 37.2917 25.5481 37.2657C24.5381 37.0971 23.475 36.8266 23.086 36.6467C22.9611 36.2769 22.5786 35.6142 21.4064 34.4421C21.3091 34.3448 21.1873 34.2758 21.0538 34.2424L19.2528 33.7921L17.5815 31.9564C17.5835 30.4453 17.8242 28.944 18.2947 27.5079C18.4502 27.6971 18.6145 27.888 18.7876 28.0807C19.5182 28.89 20.3123 29.6396 21.1625 30.3223C21.7027 30.6628 21.9823 30.4408 22.4946 29.9934L23.1688 32.6897C23.2111 32.8589 23.3103 33.0083 23.4497 33.113L25.4734 34.6308C25.5099 34.6581 25.5487 34.6821 25.5894 34.7024L30.1301 36.9728L29.738 38.934C29.7282 38.9831 29.7233 39.0329 29.7232 39.083V41.6126C29.7232 41.9 29.8857 42.1628 30.1428 42.2914L32.7588 43.5994V46.166C32.7588 46.2365 32.7687 46.3068 32.7881 46.3747L32.7944 46.3965C32.5306 46.4109 32.2653 46.4188 32 46.4188C29.8236 46.4214 27.6752 45.9283 25.7178 44.977ZM34.2766 46.0595L34.3255 46.2308V46.2305C37.997 45.6284 41.2944 43.6326 43.5306 40.6592L43.0558 39.2348L40.282 38.6802C40.0027 39.0597 39.6852 39.447 39.3296 39.8422C38.5989 40.6515 37.8047 41.401 36.9545 42.0837C36.6805 42.2969 36.2967 42.2969 36.0227 42.0837C35.1726 41.4009 34.3784 40.6512 33.6479 39.8418C32.7424 38.8341 32.0851 37.8807 31.6762 36.9818L31.241 39.1578V41.1435L33.8571 42.4516C34.1142 42.5802 34.2766 42.8429 34.2766 43.1304V46.0595Z" fill="#FF5454"/>
<path fill-rule="evenodd" clip-rule="evenodd" d="M21.6285 20.6166C23.0256 20.6166 24.1582 21.7491 24.1582 23.1462C24.1566 24.5427 23.025 25.6743 21.6285 25.6759C20.2314 25.6759 19.0989 24.5433 19.0989 23.1462C19.0989 21.7491 20.2314 20.6166 21.6285 20.6166ZM21.6285 22.1344C21.0697 22.1344 20.6167 22.5874 20.6167 23.1462C20.6173 23.7048 21.07 24.1574 21.6285 24.1581C22.1874 24.1581 22.6404 23.7051 22.6404 23.1462C22.6404 22.5874 22.1874 22.1344 21.6285 22.1344Z" fill="#FF5454"/>
<path fill-rule="evenodd" clip-rule="evenodd" d="M44.3952 21.6284C44.3952 23.0255 43.2627 24.158 41.8656 24.158C40.4691 24.1565 39.3375 23.0248 39.3359 21.6284C39.3359 20.2313 40.4685 19.0988 41.8656 19.0988C43.2627 19.0988 44.3952 20.2313 44.3952 21.6284ZM42.8774 21.6284C42.8774 21.0696 42.4244 20.6165 41.8656 20.6165C41.307 20.6172 40.8544 21.0698 40.8537 21.6284C40.8537 22.1872 41.3067 22.6403 41.8656 22.6403C42.4244 22.6403 42.8774 22.1872 42.8774 21.6284Z" fill="#FF5454"/>
<path fill-rule="evenodd" clip-rule="evenodd" d="M36.4886 32.3781C37.8857 32.3781 39.0183 33.5106 39.0183 34.9077C39.0167 36.3041 37.8851 37.4358 36.4886 37.4373C35.0915 37.4373 33.959 36.3048 33.959 34.9077C33.959 33.5106 35.0915 32.3781 36.4886 32.3781ZM36.4886 33.8958C35.9298 33.8958 35.4768 34.3489 35.4768 34.9077C35.4774 35.4663 35.93 35.919 36.4886 35.9196C37.0475 35.9196 37.5005 35.4665 37.5005 34.9077C37.5005 34.3489 37.0475 33.8958 36.4886 33.8958Z" fill="#FF5454"/>
</svg>
