<svg width="220" height="220" viewBox="0 0 220 220" fill="none" xmlns="http://www.w3.org/2000/svg">
<rect opacity="0.1" width="220" height="220" rx="2" fill="#C4C4C4"/>
<path d="M18.8555 179.143V157.143H62.8555V201.143H18.8555V179.143ZM56.5698 179.143V163.429H25.1412V194.857H56.5698V179.143ZM31.4269 179.143V169.714H50.284V188.571H31.4269V179.143ZM75.4269 198V194.857H69.1412V182.286H75.4269V163.429H81.7126V157.143H69.1412V150.857H43.9983V144.571H50.284V138.286H37.7126V150.857H31.4269V144.571H18.8555V138.286H31.4269V125.714H25.1412V132H18.8555V119.429H31.4269V125.714H37.7126V132H43.9983V125.714H50.284V132H62.8555V125.714H56.5698V119.429H37.7126V113.143H56.5698V106.857H37.7126V100.571H31.4269V106.857H18.8555V88H25.1412V94.2857H62.8555V88H56.5698V81.7143H43.9983V88H37.7126V81.7143H25.1412V69.1428H37.7126V81.7143H43.9983V75.4285H56.5698V69.1428H62.8555V75.4285H56.5698V81.7143H62.8555V88H69.1412V75.4285H75.4269V69.1428H69.1412V50.2857H81.7126V56.5714H87.9983V62.8571H81.7126V69.1428H87.9983V106.857H75.4269V100.571H69.1412V106.857H62.8555V113.143H56.5698V119.429H62.8555V125.714H69.1412V132H81.7126V125.714H75.4269V119.429H69.1412V113.143H81.7126V125.714H87.9983V113.143H94.284V125.714H100.57V106.857H106.855V100.571H113.141V106.857H106.855V113.143H113.141V119.429H131.998V113.143H125.713V106.857H119.427V94.2857H113.141V88H119.427V81.7143H125.713V75.4285H119.427V69.1428H113.141V81.7143H106.855V75.4285H100.57V81.7143H94.284V75.4285H100.57V69.1428H94.284V50.2857H87.9983V44H94.284V50.2857H100.57V25.1428H106.855V37.7143H119.427V31.4285H113.141V18.8571H125.713V25.1428H119.427V31.4285H131.998V25.1428H138.284V18.8571H150.855V37.7143H138.284V31.4285H131.998V44H138.284V62.8571H144.57V56.5714H150.855V88H163.427V81.7143H157.141V69.1428H169.713V88H182.284V81.7143H175.998V69.1428H182.284V81.7143H188.57V75.4285H201.141V88H194.855V81.7143H188.57V88H182.284V106.857H188.57V113.143H182.284V119.429H169.713V125.714H163.427V132H150.855V125.714H144.57V119.429H138.284V132H144.57V138.286H163.427V144.571H175.998V138.286H169.713V132H175.998V125.714H182.284V132H188.57V138.286H194.855V125.714H188.57V119.429H201.141V138.286H194.855V150.857H201.141V163.429H194.855V182.286H201.141V188.571H182.284V201.143H163.427V194.857H175.998V188.571H163.427V176H157.141V188.571H150.855V194.857H157.141V201.143H144.57V182.286H138.284V194.857H131.998V188.571H125.713V163.429H131.998V182.286H138.284V163.429H144.57V150.857H138.284V144.571H131.998V138.286H138.284V132H131.998V125.714H125.713V150.857H131.998V157.143H119.427V169.714H113.141V182.286H119.427V188.571H113.141V194.857H125.713V201.143H113.141V194.857H106.855V188.571H100.57V201.143H75.4269V198ZM94.284 188.571V182.286H100.57V163.429H87.9983V169.714H94.284V176H81.7126V182.286H75.4269V188.571H81.7126V194.857H94.284V188.571ZM182.284 182.286V176H188.57V163.429H194.855V157.143H188.57V138.286H182.284V157.143H188.57V163.429H182.284V169.714H175.998V188.571H182.284V182.286ZM150.855 179.143V176H144.57V182.286H150.855V179.143ZM113.141 166.571V163.429H106.855V169.714H113.141V166.571ZM169.713 160.286V150.857H150.855V169.714H169.713V160.286ZM157.141 160.286V157.143H163.427V163.429H157.141V160.286ZM106.855 154V150.857H119.427V144.571H106.855V138.286H100.57V144.571H106.855V150.857H94.284V144.571H87.9983V150.857H81.7126V144.571H75.4269V138.286H69.1412V132H62.8555V138.286H56.5698V144.571H62.8555V138.286H69.1412V144.571H75.4269V150.857H81.7126V157.143H106.855V154ZM87.9983 135.143V132H81.7126V138.286H87.9983V135.143ZM119.427 132V125.714H106.855V132H113.141V138.286H119.427V132ZM157.141 122.571V119.429H150.855V125.714H157.141V122.571ZM169.713 116.286V113.143H175.998V94.2857H169.713V100.571H163.427V106.857H157.141V100.571H144.57V94.2857H138.284V88H144.57V69.1428H138.284V62.8571H131.998V56.5714H125.713V62.8571H119.427V44H125.713V50.2857H131.998V44H125.713V37.7143H119.427V44H113.141V62.8571H119.427V69.1428H125.713V62.8571H131.998V81.7143H125.713V88H119.427V94.2857H125.713V106.857H131.998V100.571H144.57V106.857H150.855V113.143H163.427V119.429H169.713V116.286ZM163.427 110V106.857H169.713V113.143H163.427V110ZM62.8555 103.714V100.571H69.1412V94.2857H62.8555V100.571H56.5698V106.857H62.8555V103.714ZM81.7126 91.1428V88H75.4269V94.2857H81.7126V91.1428ZM81.7126 59.7143V56.5714H75.4269V62.8571H81.7126V59.7143ZM106.855 56.5714V50.2857H100.57V62.8571H106.855V56.5714ZM144.57 28.2857V25.1428H138.284V31.4285H144.57V28.2857ZM194.855 198V194.857H201.141V201.143H194.855V198ZM194.855 106.857V100.571H188.57V94.2857H194.855V100.571H201.141V113.143H194.855V106.857ZM18.8555 40.8571V18.8571H62.8555V62.8571H18.8555V40.8571ZM56.5698 40.8571V25.1428H25.1412V56.5714H56.5698V40.8571ZM31.4269 40.8571V31.4285H50.284V50.2857H31.4269V40.8571ZM157.141 40.8571V18.8571H201.141V62.8571H157.141V40.8571ZM194.855 40.8571V25.1428H163.427V56.5714H194.855V40.8571ZM169.713 40.8571V31.4285H188.57V50.2857H169.713V40.8571ZM69.1412 40.8571V37.7143H75.4269V44H69.1412V40.8571ZM81.7126 34.5714V31.4285H75.4269V18.8571H81.7126V25.1428H87.9983V18.8571H94.284V25.1428H87.9983V37.7143H81.7126V34.5714Z" fill="white"/>
</svg>
