<svg width="16" height="17" viewBox="0 0 16 17" fill="none" xmlns="http://www.w3.org/2000/svg">
<path fill-rule="evenodd" clip-rule="evenodd" d="M1.63975 7.67406C1.22403 4.71602 3.21797 2.02918 6.0406 1.63248C8.86322 1.23579 11.5205 3.26895 11.9362 6.22698C12.352 9.18502 10.358 11.8719 7.5354 12.2686C4.71277 12.6652 2.05548 10.6321 1.63975 7.67406ZM5.82067 0.0676167C2.09245 0.591584 -0.456409 4.11363 0.0748857 7.89399C0.60618 11.6743 4.02711 14.3574 7.75533 13.8334C8.80431 13.686 9.75994 13.3012 10.5799 12.7401L13.3918 16.134L13.8959 16.7425L15.1127 15.7343L14.6086 15.1258L11.7704 11.7002C13.1098 10.2215 13.8031 8.15599 13.5011 6.00705C12.9698 2.2267 9.54889 -0.456351 5.82067 0.0676167Z" fill="#D8D8D8"/>
</svg>
