<svg width="31" height="31" viewBox="0 0 31 31" fill="none" xmlns="http://www.w3.org/2000/svg">
<path d="M15.5469 30.2656C23.7188 30.2656 30.4531 23.5156 30.4531 15.3438C30.4531 7.1875 23.7031 0.4375 15.5469 0.4375C7.375 0.4375 0.640625 7.1875 0.640625 15.3438C0.640625 23.5156 7.39062 30.2656 15.5469 30.2656ZM13.7188 22.8438C13.2812 22.8438 12.9531 22.6719 12.5938 22.2344L8.17188 16.875C7.98438 16.625 7.85938 16.3281 7.85938 16.0312C7.85938 15.4219 8.34375 14.9688 8.90625 14.9688C9.26562 14.9688 9.57812 15.1094 9.89062 15.5L13.6562 20.2344L20.7656 8.9375C21.0156 8.54688 21.3594 8.34375 21.6875 8.34375C22.25 8.34375 22.7969 8.71875 22.7969 9.32812C22.7969 9.60938 22.6406 9.92188 22.4688 10.1719L14.7812 22.2188C14.5 22.6406 14.1406 22.8438 13.7188 22.8438Z" fill="#1BB978"/>
</svg>
