<svg width="12" height="11" viewBox="0 0 12 11" fill="none" xmlns="http://www.w3.org/2000/svg">
<path d="M4.88672 10.084C5.32617 10.084 5.66602 9.91992 5.90039 9.57422L11.0332 1.82812C11.1973 1.58203 11.2676 1.33594 11.2676 1.11328C11.2676 0.498047 10.793 0.0410156 10.1602 0.0410156C9.73242 0.0410156 9.45703 0.199219 9.19336 0.609375L4.86328 7.40625L2.68945 4.81055C2.46094 4.53516 2.19727 4.41211 1.83398 4.41211C1.20117 4.41211 0.732422 4.86914 0.732422 5.49023C0.732422 5.77148 0.814453 6 1.05469 6.27539L3.9082 9.63281C4.17188 9.94336 4.48242 10.084 4.88672 10.084Z" fill="white"/>
</svg>
