<svg width="21" height="21" viewBox="0 0 21 21" fill="none" xmlns="http://www.w3.org/2000/svg">
<path d="M10.5625 20.252C16.002 20.252 20.4648 15.7988 20.4648 10.3496C20.4648 4.91016 16.002 0.447266 10.5527 0.447266C5.11328 0.447266 0.650391 4.91016 0.650391 10.3496C0.650391 15.7988 5.11328 20.252 10.5625 20.252ZM10.5625 10.5938C10.3965 10.5938 10.2305 10.5156 10.0449 10.3203L6.5293 6.79492C6.67578 6.69727 6.94922 6.62891 7.31055 6.62891H13.8145C14.1758 6.62891 14.4395 6.69727 14.5957 6.79492L11.0801 10.3203C10.8945 10.5059 10.7383 10.5938 10.5625 10.5938ZM8.88281 10.2715L5.95312 13.2207C5.875 13.0742 5.83594 12.8496 5.83594 12.5371V8.13281C5.83594 7.79102 5.88477 7.53711 5.98242 7.39062L8.88281 10.2715ZM12.2324 10.2715L15.1328 7.39062C15.2305 7.53711 15.2891 7.79102 15.2891 8.13281V12.5371C15.2891 12.8496 15.2402 13.0742 15.1621 13.2207L12.2324 10.2715ZM10.5625 11.4336C10.8945 11.4336 11.1777 11.3066 11.4609 11.0332L11.666 10.8281L14.6836 13.8359C14.5176 13.9727 14.2246 14.0508 13.8242 14.0508H7.29102C6.90039 14.0508 6.60742 13.9727 6.44141 13.8359L9.44922 10.8281L9.66406 11.0332C9.94727 11.3066 10.2305 11.4336 10.5625 11.4336Z" fill="#1BB978"/>
</svg>
