<svg width="32" height="32" viewBox="0 0 32 32" fill="none" xmlns="http://www.w3.org/2000/svg">
<circle opacity="0.2" cx="16" cy="16" r="16" fill="#A2A7AE"/>
<circle cx="16" cy="16" r="7" fill="#A2A7AE"/>
<path d="M19.0088 14.5898C19.0088 14.3584 18.8447 14.1973 18.6016 14.1973H15.5225L14.8984 14.2266L15.3232 13.875L15.8975 13.3154C15.9707 13.2451 16.0205 13.1572 16.0205 13.0371C16.0205 12.8232 15.8682 12.6621 15.6396 12.6621C15.54 12.6621 15.4346 12.7061 15.3584 12.7852L13.8232 14.3027C13.75 14.373 13.7061 14.4844 13.7061 14.5898C13.7061 14.6982 13.75 14.8066 13.8232 14.8799L15.3584 16.3975C15.4346 16.4736 15.54 16.5176 15.6396 16.5176C15.8682 16.5176 16.0205 16.3564 16.0205 16.1426C16.0205 16.0225 15.9707 15.9375 15.8975 15.8643L15.3232 15.3076L14.8984 14.9561L15.5225 14.9824H18.6016C18.8447 14.9824 19.0088 14.8242 19.0088 14.5898ZM19.0088 17.4082C19.0088 17.3027 18.9678 17.1914 18.8916 17.1211L17.3564 15.6035C17.2803 15.5244 17.1748 15.4805 17.0752 15.4805C16.8467 15.4805 16.6943 15.6416 16.6943 15.8555C16.6943 15.9756 16.7471 16.0635 16.8174 16.1338L17.3916 16.6934L17.8193 17.0449L17.1924 17.0156H14.1133C13.873 17.0156 13.7061 17.1768 13.7061 17.4082C13.7061 17.6426 13.873 17.8008 14.1133 17.8008H17.1924L17.8193 17.7744L17.3916 18.126L16.8174 18.6826C16.7471 18.7559 16.6943 18.8408 16.6943 18.9609C16.6943 19.1748 16.8467 19.3359 17.0752 19.3359C17.1748 19.3359 17.2803 19.292 17.3564 19.2158L18.8916 17.6982C18.9678 17.625 19.0088 17.5166 19.0088 17.4082Z" fill="#282D40"/>
</svg>
