<svg width="19" height="20" viewBox="0 0 19 20" fill="none" xmlns="http://www.w3.org/2000/svg">
<path d="M9.5 19.8027C14.6855 19.8027 18.9629 15.5156 18.9629 10.3301C18.9629 5.1543 14.6855 0.867188 9.50977 0.867188C8.99219 0.867188 8.71875 1.17969 8.71875 1.6875V5.20312C8.71875 5.62305 9.01172 5.96484 9.44141 5.96484C9.87109 5.96484 10.1641 5.62305 10.1641 5.20312V2.57617C14.1777 2.9082 17.2734 6.23828 17.2734 10.3301C17.2734 14.6465 13.8164 18.1133 9.5 18.1133C5.17383 18.1133 1.70703 14.6465 1.7168 10.3301C1.72656 8.42578 2.40039 6.6875 3.5332 5.34961C3.83594 4.94922 3.86523 4.49023 3.5332 4.13867C3.19141 3.78711 2.63477 3.82617 2.27344 4.27539C0.886719 5.92578 0.0273438 8.04492 0.0273438 10.3301C0.0273438 15.5156 4.31445 19.8027 9.5 19.8027ZM10.9746 11.7754C11.7168 11.0039 11.5703 9.95898 10.6816 9.34375L5.85742 5.99414C5.36914 5.65234 4.86133 6.16016 5.20312 6.64844L8.55273 11.4629C9.16797 12.3516 10.2129 12.5176 10.9746 11.7754Z" fill="white"/>
</svg>
