<svg width="48" height="48" viewBox="0 0 48 48" fill="none" xmlns="http://www.w3.org/2000/svg">
<circle cx="24" cy="24" r="24" fill="#7795F8" fill-opacity="0.2"/>
<path fill-rule="evenodd" clip-rule="evenodd" d="M24.2834 21.1922L24.3158 21.7112L23.774 21.6477C21.8014 21.404 20.0781 20.5778 18.615 19.1902L17.8996 18.5017L17.7153 19.0101C17.3251 20.1435 17.5744 21.3405 18.3873 22.1455C18.8208 22.5904 18.7233 22.654 17.9755 22.3891C17.7153 22.3044 17.4877 22.2408 17.4661 22.2726C17.3902 22.3468 17.6503 23.3107 17.8562 23.692C18.1381 24.2217 18.7125 24.7407 19.3411 25.0479L19.8722 25.2915L19.2436 25.3021C18.6366 25.3021 18.615 25.3127 18.6799 25.5351C18.8968 26.2236 19.7529 26.9545 20.7067 27.2723L21.3787 27.4947L20.7934 27.8337C19.9264 28.321 18.9076 28.5964 17.8887 28.6175C17.401 28.6281 17 28.6705 17 28.7023C17 28.8082 18.3223 29.4014 19.0918 29.6344C21.4004 30.3229 24.1425 30.0264 26.2018 28.8506C27.6649 28.0138 29.1281 26.3507 29.8109 24.7407C30.1794 23.8827 30.5479 22.315 30.5479 21.5629C30.5479 21.0757 30.5805 21.0121 31.1873 20.4295C31.5451 20.0906 31.8811 19.7198 31.946 19.6139C32.0544 19.4126 32.0436 19.4126 31.4909 19.5927C30.5696 19.9105 30.4396 19.8681 30.8947 19.3915C31.2307 19.0525 31.6318 18.4381 31.6318 18.2581C31.6318 18.2263 31.4692 18.2792 31.2849 18.3746C31.0898 18.4805 30.6563 18.6394 30.3312 18.7347L29.7458 18.9148L29.2148 18.5652C28.9221 18.3746 28.5103 18.1627 28.2935 18.0992C27.7408 17.9509 26.8954 17.9721 26.3969 18.1415C25.042 18.6182 24.1859 19.8469 24.2834 21.1922Z" fill="#7795F8"/>
</svg>
