<svg width="64" height="64" viewBox="0 0 64 64" fill="none" xmlns="http://www.w3.org/2000/svg">
<circle cx="32" cy="32" r="32" fill="#DCB9F4"/>
<path d="M24.5397 23.1399L35.6957 20.0948L35.1049 18.9006C34.7184 18.1244 33.7756 17.8039 32.9994 18.1904L23.0125 23.1399H24.5397Z" fill="#9640FF"/>
<path d="M39.1586 20.1829C39.0204 20.1829 38.8821 20.2017 38.7438 20.2394L36.123 20.9559L28.1189 23.14H37.204H41.1636L40.6733 21.3425C40.4848 20.6417 39.85 20.1829 39.1586 20.1829Z" fill="#9640FF"/>
<path d="M42.8009 24.2397H42.4426H41.9556H41.4685H37.7508H24.0902H22.299H20.7906H20.5109H19.5744C19.0779 24.2397 18.6348 24.4692 18.3457 24.8305C18.2137 24.9971 18.1131 25.1888 18.0566 25.3993C18.022 25.5313 18 25.6696 18 25.811V25.9996V27.7908V43.3181C18 44.1855 18.7039 44.8894 19.5713 44.8894H42.7978C43.6651 44.8894 44.369 44.1855 44.369 43.3181V38.9342H35.0451C33.5713 38.9342 32.374 37.7369 32.374 36.2631V34.8238V34.3367V33.8496V32.7686C32.374 32.0458 32.663 31.389 33.1313 30.9082C33.5461 30.4808 34.1024 30.1917 34.7246 30.1194C34.8283 30.1069 34.9351 30.1006 35.042 30.1006H43.0617H43.5488H44.0359H44.369V25.811C44.3722 24.9437 43.6682 24.2397 42.8009 24.2397Z" fill="#9640FF"/>
<path fill-rule="evenodd" clip-rule="evenodd" d="M44.9221 31.276C45.1295 31.3483 45.315 31.4582 45.4721 31.6028C45.7863 31.8887 45.9843 32.3036 45.9843 32.7624V36.2601C45.9843 36.7189 45.7863 37.1337 45.4721 37.4196C45.315 37.5642 45.1295 37.6773 44.9221 37.7465C44.7619 37.7999 44.5922 37.8313 44.413 37.8313H44.3722H35.0451C34.1778 37.8313 33.4739 37.1274 33.4739 36.26V34.5191V34.032V33.5449V32.7624C33.4739 31.8951 34.1778 31.1912 35.0451 31.1912H42.097H43.8537H44.3408H44.3722H44.413C44.5922 31.1912 44.7618 31.2226 44.9221 31.276ZM37.5403 35.6095C37.974 35.6095 38.326 35.2576 38.326 34.8239V34.3022C38.326 33.8685 37.974 33.5166 37.5403 33.5166H37.1506H37.0187C36.8364 33.5166 36.6698 33.5826 36.5347 33.6863C36.3493 33.8277 36.233 34.0508 36.233 34.3022V34.8239C36.233 35.2576 36.585 35.6095 37.0187 35.6095H37.5403Z" fill="#9640FF"/>
</svg>
