<svg width="64" height="64" viewBox="0 0 64 64" fill="none" xmlns="http://www.w3.org/2000/svg">
<circle cx="32" cy="32" r="32" fill="#DCB9F4"/>
<path d="M38.0625 17.1719C38.6406 17.1719 39.1094 16.6719 39.1094 16.125V12.6875C39.1094 12.1094 38.6406 11.6406 38.0625 11.6406C37.4844 11.6406 37.0156 12.1094 37.0156 12.6875V16.125C37.0156 16.6719 37.4844 17.1719 38.0625 17.1719ZM44.875 20.0156C45.2656 20.4062 45.9531 20.4219 46.3594 20.0156L48.7969 17.5781C49.2031 17.1719 49.1875 16.5 48.7969 16.0938C48.3906 15.7031 47.7344 15.6875 47.3281 16.0938L44.875 18.5469C44.4844 18.9531 44.5 19.6094 44.875 20.0156ZM29.75 20.0156C30.1719 20.4219 30.8438 20.4062 31.2344 20.0156C31.625 19.6094 31.6406 18.9531 31.2344 18.5469L28.7969 16.0938C28.375 15.6875 27.7344 15.7031 27.3281 16.0938C26.9219 16.5 26.9219 17.1719 27.3281 17.5781L29.75 20.0156ZM41.6406 33.1875C43.875 31.7656 45.2656 29.5 45.2656 26.8281C45.2656 22.8125 42.0625 19.6094 38.0625 19.6094C35.2969 19.6094 32.9375 21.1406 31.7812 23.3906C32.4062 24.0469 32.9219 24.75 33.3594 25.5781C38.125 25.9688 41.2031 28.9375 41.6406 33.1875ZM16.625 41.2812H32.6562C36.7812 41.2812 39.9844 38.1719 39.9844 34.1719C39.9844 30.1719 36.7188 27.1562 32.3438 27.1406C30.6094 23.7812 27.5625 21.875 24 21.875C19.2656 21.875 15.25 25.6094 14.8125 30.4531C12.2656 31.1875 10.6406 33.2812 10.6406 35.8438C10.6406 39.0625 13.0781 41.2812 16.625 41.2812ZM48.75 27.875H52.1875C52.75 27.875 53.2031 27.4062 53.2188 26.8281C53.2188 26.2656 52.75 25.7969 52.1875 25.7969H48.75C48.1875 25.7969 47.7031 26.2656 47.7031 26.8281C47.7031 27.4062 48.1875 27.875 48.75 27.875ZM47.3281 37.5781C47.7344 37.9844 48.3906 37.9688 48.7969 37.5781C49.1875 37.1719 49.2031 36.5 48.7969 36.1094L46.3438 33.6719C45.9375 33.2812 45.2812 33.2656 44.875 33.6719C44.4844 34.0781 44.4844 34.75 44.875 35.1406L47.3281 37.5781ZM28.6875 46.6719H25.8906L27.2969 44C27.4688 43.6719 27.3438 43.4375 27.0156 43.4375H24.3594C23.9531 43.4375 23.8125 43.5938 23.6875 43.8906L21.8281 48.125C21.6719 48.4844 21.8438 48.7031 22.2188 48.7031H24.5625L22.6875 53.2188C22.6094 53.4219 22.6562 53.5781 22.7812 53.625C22.9219 53.6875 23.0938 53.6406 23.2344 53.4688L28.9375 47.3594C29.2188 47.0469 29.1094 46.6719 28.6875 46.6719Z" fill="#FF40D5"/>
</svg>
