<svg width="1053" height="724" viewBox="0 0 1053 724" fill="none" xmlns="http://www.w3.org/2000/svg">
<rect width="6.63501" height="199.821" rx="3.31568" transform="matrix(0.819385 0.573244 -0.573909 0.818919 1008 -47.6841)" fill="url(#paint0_linear)"/>
<g filter="url(#filter0_f)">
<rect width="4.97626" height="150.073" rx="2.48676" transform="matrix(0.819385 0.573244 -0.573909 0.818919 489.744 -12.606)" fill="url(#paint1_linear)"/>
</g>
<rect width="7.46438" height="58.0392" rx="3.73014" transform="matrix(0.819385 0.573244 -0.573909 0.818919 676.7 50.8482)" fill="url(#paint2_linear)"/>
<rect width="7.46438" height="58.0392" rx="3.73014" transform="matrix(0.819385 0.573244 -0.573909 0.818919 856.09 454.908)" fill="url(#paint3_linear)"/>
<rect width="7.46438" height="58.0392" rx="3.73014" transform="matrix(0.819385 0.573244 -0.573909 0.818919 918.148 256.878)" fill="url(#paint4_linear)"/>
<g filter="url(#filter1_f)">
<path fill-rule="evenodd" clip-rule="evenodd" d="M1019.82 -131.978C1023.76 -137.602 1031.52 -138.966 1037.15 -135.029C1042.77 -131.093 1044.14 -123.339 1040.2 -117.715L864.137 133.517C860.196 139.14 852.434 140.504 846.807 136.567C841.181 132.631 839.808 124.877 843.75 119.254L1019.82 -131.978Z" fill="url(#paint5_linear)"/>
</g>
<g filter="url(#filter2_f)">
<path fill-rule="evenodd" clip-rule="evenodd" d="M279.199 175.025C283.14 169.402 290.902 168.038 296.528 171.975C302.155 175.911 303.527 183.665 299.586 189.289L123.52 440.521C119.579 446.144 111.817 447.508 106.19 443.571C100.563 439.635 99.1913 431.881 103.132 426.257L279.199 175.025Z" fill="url(#paint6_linear)"/>
</g>
<g filter="url(#filter3_f)">
<path fill-rule="evenodd" clip-rule="evenodd" d="M149.228 267.349C151.233 264.489 155.179 263.795 158.041 265.798C160.906 267.802 161.605 271.753 159.598 274.617L110.353 344.885C108.349 347.745 104.403 348.439 101.541 346.436C98.6755 344.432 97.9764 340.481 99.9833 337.617L149.228 267.349Z" fill="url(#paint7_linear)"/>
</g>
<g filter="url(#filter4_f)">
<rect width="4.97626" height="150.073" rx="2.48676" transform="matrix(0.819385 0.573244 -0.573909 0.818919 212.274 243.386)" fill="url(#paint8_linear)"/>
</g>
<g filter="url(#filter5_f)">
<rect width="4.97626" height="150.073" rx="2.48676" transform="matrix(0.819385 0.573244 -0.573909 0.818919 825.84 417.909)" fill="url(#paint9_linear)"/>
</g>
<path fill-rule="evenodd" clip-rule="evenodd" d="M905.192 -96.9767C908.147 -101.194 913.964 -102.22 918.185 -99.2677L918.533 -99.0241C922.753 -96.0718 923.778 -90.2593 920.822 -86.0417L788.772 102.382C785.816 106.6 779.999 107.626 775.779 104.673L775.431 104.43C771.211 101.477 770.186 95.6649 773.142 91.4473L905.192 -96.9767Z" fill="url(#paint10_linear)"/>
<g filter="url(#filter6_f)">
<path fill-rule="evenodd" clip-rule="evenodd" d="M527.896 -151.548C530.393 -155.111 535.308 -155.978 538.874 -153.483C542.439 -150.989 543.305 -146.078 540.808 -142.514L359.517 116.18C357.019 119.744 352.104 120.611 348.539 118.116C344.973 115.622 344.108 110.71 346.605 107.147L527.896 -151.548Z" fill="url(#paint11_linear)"/>
</g>
<g filter="url(#filter7_f)">
<rect width="35.3845" height="729.832" rx="17.6828" transform="matrix(0.809258 0.587453 -0.588117 0.808776 836.47 -40.0573)" fill="url(#paint12_linear)"/>
</g>
<g opacity="0.2" filter="url(#filter8_f)">
<rect width="32.1427" height="351.833" rx="16.0627" transform="matrix(0.809258 0.587453 -0.588117 0.808776 517.28 214.829)" fill="url(#paint13_linear)"/>
</g>
<g filter="url(#filter9_f)">
<rect width="17.609" height="192.747" rx="8.79977" transform="matrix(0.809258 0.587453 -0.588117 0.808776 934.326 129.882)" fill="url(#paint14_linear)"/>
</g>
<path opacity="0.302783" fill-rule="evenodd" clip-rule="evenodd" d="M520.272 386.517C521.349 385.036 523.424 384.709 524.906 385.785C526.388 386.86 526.718 388.934 525.641 390.415L412.021 546.664C410.944 548.145 408.869 548.473 407.387 547.397C405.905 546.321 405.575 544.247 406.652 542.766L520.272 386.517Z" fill="url(#paint15_linear)"/>
<rect width="4.01994" height="199.823" rx="2.00889" transform="matrix(0.809258 0.587453 -0.588117 0.808776 1007.32 216.019)" fill="url(#paint16_linear)"/>
<path opacity="0.1" fill-rule="evenodd" clip-rule="evenodd" d="M1038.02 128.255C1039.63 126.033 1042.75 125.542 1044.97 127.156C1047.19 128.769 1047.69 131.88 1046.07 134.102L934.403 287.669C932.787 289.89 929.673 290.382 927.45 288.768C925.228 287.155 924.733 284.044 926.348 281.822L1038.02 128.255Z" fill="url(#paint17_linear)"/>
<defs>
<filter id="filter0_f" x="392.804" y="-23.4186" width="111.829" height="147.375" filterUnits="userSpaceOnUse" color-interpolation-filters="sRGB">
<feFlood flood-opacity="0" result="BackgroundImageFix"/>
<feBlend mode="normal" in="SourceGraphic" in2="BackgroundImageFix" result="shape"/>
<feGaussianBlur stdDeviation="5.89454" result="effect1_foregroundBlur"/>
</filter>
<filter id="filter1_f" x="831.5" y="-147.278" width="220.953" height="296.095" filterUnits="userSpaceOnUse" color-interpolation-filters="sRGB">
<feFlood flood-opacity="0" result="BackgroundImageFix"/>
<feBlend mode="normal" in="SourceGraphic" in2="BackgroundImageFix" result="shape"/>
<feGaussianBlur stdDeviation="5" result="effect1_foregroundBlur"/>
</filter>
<filter id="filter2_f" x="0.88269" y="69.7256" width="400.953" height="476.095" filterUnits="userSpaceOnUse" color-interpolation-filters="sRGB">
<feFlood flood-opacity="0" result="BackgroundImageFix"/>
<feBlend mode="normal" in="SourceGraphic" in2="BackgroundImageFix" result="shape"/>
<feGaussianBlur stdDeviation="50" result="effect1_foregroundBlur"/>
</filter>
<filter id="filter3_f" x="88.8378" y="254.653" width="81.9061" height="102.927" filterUnits="userSpaceOnUse" color-interpolation-filters="sRGB">
<feFlood flood-opacity="0" result="BackgroundImageFix"/>
<feBlend mode="normal" in="SourceGraphic" in2="BackgroundImageFix" result="shape"/>
<feGaussianBlur stdDeviation="5" result="effect1_foregroundBlur"/>
</filter>
<filter id="filter4_f" x="115.334" y="232.574" width="111.829" height="147.375" filterUnits="userSpaceOnUse" color-interpolation-filters="sRGB">
<feFlood flood-opacity="0" result="BackgroundImageFix"/>
<feBlend mode="normal" in="SourceGraphic" in2="BackgroundImageFix" result="shape"/>
<feGaussianBlur stdDeviation="5.89454" result="effect1_foregroundBlur"/>
</filter>
<filter id="filter5_f" x="728.9" y="407.097" width="111.829" height="147.375" filterUnits="userSpaceOnUse" color-interpolation-filters="sRGB">
<feFlood flood-opacity="0" result="BackgroundImageFix"/>
<feBlend mode="normal" in="SourceGraphic" in2="BackgroundImageFix" result="shape"/>
<feGaussianBlur stdDeviation="5.89454" result="effect1_foregroundBlur"/>
</filter>
<filter id="filter6_f" x="311.178" y="-188.908" width="265.056" height="342.448" filterUnits="userSpaceOnUse" color-interpolation-filters="sRGB">
<feFlood flood-opacity="0" result="BackgroundImageFix"/>
<feBlend mode="normal" in="SourceGraphic" in2="BackgroundImageFix" result="shape"/>
<feGaussianBlur stdDeviation="17" result="effect1_foregroundBlur"/>
</filter>
<filter id="filter7_f" x="254.264" y="-193.042" width="763.82" height="917.026" filterUnits="userSpaceOnUse" color-interpolation-filters="sRGB">
<feFlood flood-opacity="0" result="BackgroundImageFix"/>
<feBlend mode="normal" in="SourceGraphic" in2="BackgroundImageFix" result="shape"/>
<feGaussianBlur stdDeviation="80" result="effect1_foregroundBlur"/>
</filter>
<filter id="filter8_f" x="256.739" y="161.202" width="340.175" height="410.691" filterUnits="userSpaceOnUse" color-interpolation-filters="sRGB">
<feFlood flood-opacity="0" result="BackgroundImageFix"/>
<feBlend mode="normal" in="SourceGraphic" in2="BackgroundImageFix" result="shape"/>
<feGaussianBlur stdDeviation="30" result="effect1_foregroundBlur"/>
</filter>
<filter id="filter9_f" x="751.38" y="60.2922" width="266.783" height="305.414" filterUnits="userSpaceOnUse" color-interpolation-filters="sRGB">
<feFlood flood-opacity="0" result="BackgroundImageFix"/>
<feBlend mode="normal" in="SourceGraphic" in2="BackgroundImageFix" result="shape"/>
<feGaussianBlur stdDeviation="36.5408" result="effect1_foregroundBlur"/>
</filter>
<linearGradient id="paint0_linear" x1="0.366092" y1="179.764" x2="7.08181" y2="179.739" gradientUnits="userSpaceOnUse">
<stop stop-color="#4553FF"/>
<stop offset="1" stop-color="#4553FF"/>
</linearGradient>
<linearGradient id="paint1_linear" x1="1.52756" y1="87.1268" x2="2.32937" y2="87.1268" gradientUnits="userSpaceOnUse">
<stop stop-color="#73EED6"/>
<stop offset="1" stop-color="#7FF3D5"/>
</linearGradient>
<linearGradient id="paint2_linear" x1="0.0855721" y1="-169.986" x2="-38.9226" y2="-167.703" gradientUnits="userSpaceOnUse">
<stop stop-color="#8468F5"/>
<stop offset="1" stop-color="#EC74E7"/>
</linearGradient>
<linearGradient id="paint3_linear" x1="0.0855721" y1="-169.986" x2="-38.9226" y2="-167.703" gradientUnits="userSpaceOnUse">
<stop stop-color="#8468F5"/>
<stop offset="1" stop-color="#EC74E7"/>
</linearGradient>
<linearGradient id="paint4_linear" x1="0.0855721" y1="-169.986" x2="-38.9226" y2="-167.703" gradientUnits="userSpaceOnUse">
<stop stop-color="#8468F5"/>
<stop offset="1" stop-color="#EC74E7"/>
</linearGradient>
<linearGradient id="paint5_linear" x1="768.252" y1="284.15" x2="905.349" y2="339.039" gradientUnits="userSpaceOnUse">
<stop stop-color="#A6FFCB"/>
<stop offset="0.308669" stop-color="#05D5FF"/>
<stop offset="1" stop-color="#5533FF"/>
</linearGradient>
<linearGradient id="paint6_linear" x1="27.635" y1="591.154" x2="164.731" y2="646.043" gradientUnits="userSpaceOnUse">
<stop stop-color="#A6FFCB"/>
<stop offset="0.308669" stop-color="#05D5FF"/>
<stop offset="1" stop-color="#5533FF"/>
</linearGradient>
<linearGradient id="paint7_linear" x1="-112.653" y1="198.999" x2="132.534" y2="160.709" gradientUnits="userSpaceOnUse">
<stop stop-color="#A6FFCB"/>
<stop offset="0.308669" stop-color="#05D5FF"/>
<stop offset="1" stop-color="#5533FF"/>
</linearGradient>
<linearGradient id="paint8_linear" x1="1.52756" y1="87.1268" x2="2.32937" y2="87.1268" gradientUnits="userSpaceOnUse">
<stop stop-color="#73EED6"/>
<stop offset="1" stop-color="#7FF3D5"/>
</linearGradient>
<linearGradient id="paint9_linear" x1="1.52756" y1="87.1268" x2="2.32937" y2="87.1268" gradientUnits="userSpaceOnUse">
<stop stop-color="#73EED6"/>
<stop offset="1" stop-color="#7FF3D5"/>
</linearGradient>
<linearGradient id="paint10_linear" x1="775.11" y1="117.56" x2="742.085" y2="83.4601" gradientUnits="userSpaceOnUse">
<stop stop-color="#A6FFCB"/>
<stop offset="0.308669" stop-color="#05D5FF"/>
<stop offset="1" stop-color="#5533FF"/>
</linearGradient>
<linearGradient id="paint11_linear" x1="842.036" y1="-615.402" x2="792.427" y2="-648.934" gradientUnits="userSpaceOnUse">
<stop stop-color="#8468F5"/>
<stop offset="1" stop-color="#EC74E7"/>
</linearGradient>
<linearGradient id="paint12_linear" x1="33.0634" y1="729.832" x2="33.0634" y2="0" gradientUnits="userSpaceOnUse">
<stop stop-color="#A6FFCB"/>
<stop offset="0.308669" stop-color="#05D5FF"/>
<stop offset="1" stop-color="#5533FF"/>
</linearGradient>
<linearGradient id="paint13_linear" x1="34.1827" y1="396.493" x2="34.1827" y2="0" gradientUnits="userSpaceOnUse">
<stop stop-color="#4553FF"/>
<stop offset="1" stop-color="#1BB978"/>
</linearGradient>
<linearGradient id="paint14_linear" x1="18.7265" y1="217.213" x2="18.7265" y2="0" gradientUnits="userSpaceOnUse">
<stop stop-color="#4553FF"/>
<stop offset="1" stop-color="#1BB978"/>
</linearGradient>
<linearGradient id="paint15_linear" x1="404.204" y1="555.949" x2="391.516" y2="545.002" gradientUnits="userSpaceOnUse">
<stop stop-color="#A6FFCB"/>
<stop offset="0.308669" stop-color="#05D5FF"/>
<stop offset="1" stop-color="#5533FF"/>
</linearGradient>
<linearGradient id="paint16_linear" x1="5.48391" y1="243.305" x2="5.48391" y2="-128.277" gradientUnits="userSpaceOnUse">
<stop stop-color="#A6FFCB"/>
<stop offset="0.308669" stop-color="#05D5FF"/>
<stop offset="1" stop-color="#5533FF"/>
</linearGradient>
<linearGradient id="paint17_linear" x1="935.664" y1="269.946" x2="943.843" y2="275.825" gradientUnits="userSpaceOnUse">
<stop stop-color="#1FA2FF"/>
<stop offset="1" stop-color="#4553FF"/>
</linearGradient>
</defs>
</svg>
