<svg width="356" height="92" viewBox="0 0 356 92" fill="none" xmlns="http://www.w3.org/2000/svg">
<path d="M113.633 0L97.4775 15.824H0.000366211L16.1558 0H113.633Z" fill="url(#paint0_linear)"/>
<path d="M52.8231 28.8882L57.9057 22.6322H30.3144L8.71336 43.9761H66.6187L81.8666 28.8882H52.8231Z" fill="url(#paint1_linear)"/>
<path d="M18.1527 92L60.4472 50.0481H37.2124L18.1527 92Z" fill="url(#paint2_linear)"/>
<path fill-rule="evenodd" clip-rule="evenodd" d="M95.7748 72.5346C99.31 74.3745 103.275 75.2945 107.668 75.2945C112.113 75.2945 116.102 74.3745 119.638 72.5346C123.173 70.6945 125.925 68.139 127.895 64.8679C129.865 61.5968 130.849 57.8912 130.849 53.7512C130.849 49.6113 129.865 45.9313 127.895 42.7113C125.925 39.4402 123.173 36.9102 119.638 35.1213C116.102 33.2813 112.113 32.3613 107.668 32.3613C103.224 32.3613 99.2343 33.2813 95.6991 35.1213C92.2143 36.9102 89.4619 39.4402 87.4418 42.7113C85.4721 45.9824 84.4873 49.6624 84.4873 53.7512C84.4873 57.8912 85.4721 61.5968 87.4418 64.8679C89.4619 68.139 92.2396 70.6945 95.7748 72.5346ZM113.88 61.1112C112.264 62.849 110.194 63.7179 107.668 63.7179C105.143 63.7179 103.073 62.849 101.456 61.1112C99.8403 59.3223 99.0323 56.869 99.0323 53.7512C99.0323 50.6846 99.8403 48.2824 101.456 46.5446C103.073 44.8068 105.143 43.9379 107.668 43.9379C110.194 43.9379 112.264 44.8068 113.88 46.5446C115.496 48.2824 116.304 50.6846 116.304 53.7512C116.304 56.869 115.496 59.3223 113.88 61.1112Z" fill="url(#paint3_linear)"/>
<path d="M156.91 33.8179C154.587 34.7379 152.693 36.1435 151.229 38.0346V33.0513H137.517V74.6045H151.91V55.5146C151.91 52.039 152.769 49.4579 154.486 47.7713C156.254 46.0846 158.678 45.2413 161.759 45.2413C162.617 45.2413 163.703 45.3179 165.016 45.4713V32.3613C161.986 32.3613 159.284 32.8468 156.91 33.8179Z" fill="url(#paint4_linear)"/>
<path d="M185.953 75.2945C182.519 75.2945 179.135 74.9112 175.802 74.1445C172.469 73.3268 169.792 72.279 167.772 71.0012L172.09 61.0346C173.959 62.2101 176.181 63.1557 178.757 63.8712C181.332 64.5357 183.883 64.8679 186.408 64.8679C188.731 64.8679 190.372 64.6379 191.332 64.1779C192.342 63.6668 192.847 62.9512 192.847 62.0312C192.847 61.1112 192.241 60.4723 191.029 60.1146C189.867 59.7057 187.999 59.3223 185.423 58.9646C182.14 58.5557 179.338 58.019 177.014 57.3546C174.742 56.6901 172.772 55.4635 171.105 53.6746C169.439 51.8857 168.606 49.3813 168.606 46.1613C168.606 43.5035 169.388 41.1524 170.954 39.1079C172.52 37.0124 174.792 35.3768 177.772 34.2013C180.802 32.9746 184.413 32.3613 188.605 32.3613C191.585 32.3613 194.539 32.6679 197.468 33.2813C200.397 33.8946 202.847 34.7635 204.816 35.8879L200.498 45.7779C196.862 43.7335 192.923 42.7113 188.681 42.7113C186.408 42.7113 184.741 42.9924 183.681 43.5546C182.62 44.0657 182.09 44.7557 182.09 45.6246C182.09 46.5957 182.671 47.2857 183.832 47.6946C184.994 48.0524 186.913 48.4357 189.59 48.8446C192.973 49.3557 195.776 49.9435 197.999 50.6079C200.221 51.2724 202.14 52.499 203.756 54.2879C205.422 56.0257 206.256 58.479 206.256 61.6479C206.256 64.2546 205.473 66.6057 203.907 68.7012C202.342 70.7457 200.019 72.3557 196.938 73.5312C193.908 74.7068 190.246 75.2945 185.953 75.2945Z" fill="url(#paint5_linear)"/>
<path fill-rule="evenodd" clip-rule="evenodd" d="M245.563 37.1146C241.977 33.9457 236.776 32.3613 229.958 32.3613C226.675 32.3613 223.392 32.7957 220.109 33.6646C216.877 34.4824 214.125 35.6579 211.852 37.1913L216.701 47.0813C218.115 45.9568 219.832 45.0879 221.852 44.4746C223.872 43.8102 225.867 43.4779 227.837 43.4779C233.392 43.4779 236.296 45.6757 236.548 50.0713H228.367C222.155 50.0713 217.559 51.1701 214.579 53.3679C211.6 55.5146 210.11 58.5557 210.11 62.4912C210.11 64.9446 210.691 67.1423 211.852 69.0846C213.064 70.9757 214.832 72.4834 217.155 73.6079C219.478 74.7323 222.231 75.2945 225.412 75.2945C231.422 75.2945 235.463 73.2757 237.533 69.2379V74.6045H250.942V51.5279C250.942 45.0368 249.149 40.2324 245.563 37.1146ZM233.821 64.8679C232.559 65.6857 231.094 66.0946 229.427 66.0946C227.761 66.0946 226.448 65.7112 225.488 64.9446C224.529 64.1779 224.049 63.1557 224.049 61.8779C224.049 59.0668 226.145 57.6612 230.336 57.6612H236.548V61.2646C235.993 62.849 235.084 64.0501 233.821 64.8679Z" fill="url(#paint6_linear)"/>
<path fill-rule="evenodd" clip-rule="evenodd" d="M304.784 33.0513V67.0146C304.784 74.7323 302.713 80.5079 298.572 84.3412C294.431 88.2256 288.471 90.1679 280.694 90.1679C276.654 90.1679 272.866 89.7079 269.331 88.7879C265.796 87.8679 262.791 86.5134 260.316 84.7245L265.543 74.5279C267.21 75.9079 269.305 76.9812 271.831 77.7479C274.406 78.5657 276.931 78.9745 279.406 78.9745C283.194 78.9745 285.972 78.1312 287.739 76.4445C289.507 74.7579 290.391 72.2534 290.391 68.9312V67.5512C287.613 70.8223 283.547 72.4579 278.194 72.4579C274.558 72.4579 271.199 71.6401 268.119 70.0046C265.038 68.3179 262.589 65.9668 260.77 62.9512C258.952 59.8846 258.043 56.3579 258.043 52.3712C258.043 48.4357 258.952 44.9601 260.77 41.9446C262.589 38.8779 265.038 36.5268 268.119 34.8913C271.199 33.2046 274.558 32.3613 278.194 32.3613C284.052 32.3613 288.345 34.2779 291.072 38.1113V33.0513H304.784ZM281.603 60.8812C284.179 60.8812 286.3 60.089 287.966 58.5046C289.684 56.9201 290.542 54.8757 290.542 52.3712C290.542 49.8668 289.709 47.8479 288.042 46.3146C286.376 44.7302 284.229 43.9379 281.603 43.9379C278.977 43.9379 276.805 44.7302 275.088 46.3146C273.421 47.8479 272.588 49.8668 272.588 52.3712C272.588 54.8757 273.447 56.9201 275.164 58.5046C276.881 60.089 279.027 60.8812 281.603 60.8812Z" fill="url(#paint7_linear)"/>
<path fill-rule="evenodd" clip-rule="evenodd" d="M355.773 57.5079C355.925 55.2079 356 54.0068 356 53.9046C356 49.4579 355.016 45.6246 353.046 42.4046C351.127 39.1335 348.501 36.6546 345.167 34.9679C341.834 33.2302 338.122 32.3613 334.031 32.3613C329.739 32.3613 325.875 33.2813 322.441 35.1213C319.007 36.9613 316.305 39.5168 314.335 42.7879C312.416 46.0079 311.456 49.6624 311.456 53.7512C311.456 57.8912 312.441 61.5968 314.411 64.8679C316.431 68.139 319.259 70.6945 322.895 72.5346C326.532 74.3745 330.749 75.2945 335.547 75.2945C343.223 75.2945 349.056 73.0457 353.046 68.5479L345.47 60.5746C344.006 61.8523 342.541 62.7723 341.077 63.3346C339.663 63.8968 337.971 64.1779 336.001 64.1779C333.375 64.1779 331.178 63.6157 329.41 62.4912C327.693 61.3157 326.532 59.6546 325.926 57.5079H355.773ZM328.501 44.6279C330.016 43.3502 331.885 42.7113 334.107 42.7113C336.329 42.7113 338.173 43.3502 339.637 44.6279C341.152 45.9057 342.112 47.6435 342.516 49.8413H325.698C326.102 47.6435 327.037 45.9057 328.501 44.6279Z" fill="url(#paint8_linear)"/>
<defs>
<linearGradient id="paint0_linear" x1="525.691" y1="92" x2="-11.3503" y2="-8.83701" gradientUnits="userSpaceOnUse">
<stop stop-color="#A6FFCB"/>
<stop offset="0.308669" stop-color="#05D5FF"/>
<stop offset="1" stop-color="#5533FF"/>
</linearGradient>
<linearGradient id="paint1_linear" x1="525.691" y1="92" x2="-11.3503" y2="-8.83701" gradientUnits="userSpaceOnUse">
<stop stop-color="#A6FFCB"/>
<stop offset="0.308669" stop-color="#05D5FF"/>
<stop offset="1" stop-color="#5533FF"/>
</linearGradient>
<linearGradient id="paint2_linear" x1="525.691" y1="92" x2="-11.3503" y2="-8.83701" gradientUnits="userSpaceOnUse">
<stop stop-color="#A6FFCB"/>
<stop offset="0.308669" stop-color="#05D5FF"/>
<stop offset="1" stop-color="#5533FF"/>
</linearGradient>
<linearGradient id="paint3_linear" x1="525.691" y1="92" x2="-11.3503" y2="-8.83701" gradientUnits="userSpaceOnUse">
<stop stop-color="#A6FFCB"/>
<stop offset="0.308669" stop-color="#05D5FF"/>
<stop offset="1" stop-color="#5533FF"/>
</linearGradient>
<linearGradient id="paint4_linear" x1="525.691" y1="92" x2="-11.3503" y2="-8.83701" gradientUnits="userSpaceOnUse">
<stop stop-color="#A6FFCB"/>
<stop offset="0.308669" stop-color="#05D5FF"/>
<stop offset="1" stop-color="#5533FF"/>
</linearGradient>
<linearGradient id="paint5_linear" x1="525.691" y1="92" x2="-11.3503" y2="-8.83701" gradientUnits="userSpaceOnUse">
<stop stop-color="#A6FFCB"/>
<stop offset="0.308669" stop-color="#05D5FF"/>
<stop offset="1" stop-color="#5533FF"/>
</linearGradient>
<linearGradient id="paint6_linear" x1="525.691" y1="92" x2="-11.3503" y2="-8.83701" gradientUnits="userSpaceOnUse">
<stop stop-color="#A6FFCB"/>
<stop offset="0.308669" stop-color="#05D5FF"/>
<stop offset="1" stop-color="#5533FF"/>
</linearGradient>
<linearGradient id="paint7_linear" x1="525.691" y1="92" x2="-11.3503" y2="-8.83701" gradientUnits="userSpaceOnUse">
<stop stop-color="#A6FFCB"/>
<stop offset="0.308669" stop-color="#05D5FF"/>
<stop offset="1" stop-color="#5533FF"/>
</linearGradient>
<linearGradient id="paint8_linear" x1="525.691" y1="92" x2="-11.3503" y2="-8.83701" gradientUnits="userSpaceOnUse">
<stop stop-color="#A6FFCB"/>
<stop offset="0.308669" stop-color="#05D5FF"/>
<stop offset="1" stop-color="#5533FF"/>
</linearGradient>
</defs>
</svg>
