<svg width="24" height="24" viewBox="0 0 24 24" fill="none" xmlns="http://www.w3.org/2000/svg">
<path d="M18.6214 2.55078L21.4498 5.37921L20.0356 6.79342L17.2071 3.965L18.6214 2.55078Z" fill="#A2A7AE"/>
<path d="M12.8225 8.60103H10.8225V12.601H12.8225V8.60103Z" fill="#A2A7AE"/>
<path fill-rule="evenodd" clip-rule="evenodd" d="M5.18633 18.8142C8.70105 22.329 14.3995 22.329 17.9143 18.8142C21.429 15.2995 21.429 9.60103 17.9143 6.08632C14.3995 2.5716 8.70105 2.5716 5.18633 6.08632C1.67161 9.60103 1.67161 15.2995 5.18633 18.8142ZM6.60054 17.4C9.33422 20.1337 13.7664 20.1337 16.5 17.4C19.2337 14.6664 19.2337 10.2342 16.5 7.50053C13.7664 4.76686 9.33422 4.76686 6.60054 7.50053C3.86688 10.2342 3.86688 14.6664 6.60054 17.4Z" fill="#A2A7AE"/>
</svg>
